<?xml version="1.0" encoding="utf-8"?>
<!-- Generator: Adobe Illustrator 24.3.0, SVG Export Plug-In . SVG Version: 6.00 Build 0)  -->
<svg version="1.1" xmlns="http://www.w3.org/2000/svg" xmlns:xlink="http://www.w3.org/1999/xlink" x="0px" y="0px" width="1200px"
	 height="1200px" viewBox="0 0 1200 1200" enable-background="new 0 0 1200 1200" xml:space="preserve">
<g id="_x32_" display="none">
	<radialGradient id="SVGID_1_" cx="600" cy="600" r="600" gradientUnits="userSpaceOnUse">
		<stop  offset="0" style="stop-color:#FADBA9"/>
		<stop  offset="0.3339" style="stop-color:#F5D7A6"/>
		<stop  offset="0.7056" style="stop-color:#E8CB9D"/>
		<stop  offset="1" style="stop-color:#D8BD92"/>
	</radialGradient>
	<rect display="inline" fill="url(#SVGID_1_)" width="1200" height="1200"/>
</g>
<g id="_x31_">
	<g>
		<g>
			<g>
				<g>
					<path fill="#B1591C" d="M961.532,486.287h71.489c1.381,0,2.5-1.119,2.5-2.5s-1.119-2.5-2.5-2.5h-71.489
						c-1.381,0-2.5,1.119-2.5,2.5S960.151,486.287,961.532,486.287z"/>
				</g>
				<g>
					<path fill="#B1591C" d="M961.532,506.032h100.976c1.381,0,2.5-1.119,2.5-2.5s-1.119-2.5-2.5-2.5H961.532
						c-1.381,0-2.5,1.119-2.5,2.5S960.151,506.032,961.532,506.032z"/>
				</g>
				<g>
					<path fill="#B1591C" d="M977.532,527.819h96.34c1.381,0,2.5-1.119,2.5-2.5s-1.119-2.5-2.5-2.5h-96.34
						c-1.381,0-2.5,1.119-2.5,2.5S976.151,527.819,977.532,527.819z"/>
				</g>
				<g>
					<path fill="#B1591C" d="M1005.447,548.726h72.17c1.381,0,2.5-1.119,2.5-2.5s-1.119-2.5-2.5-2.5h-72.17
						c-1.381,0-2.5,1.119-2.5,2.5S1004.066,548.726,1005.447,548.726z"/>
				</g>
			</g>
			<circle fill="#2D1818" cx="1009.872" cy="449.404" r="7.149"/>
			<circle fill="#2D1818" cx="1052.085" cy="475.957" r="2.723"/>
			<polygon fill="#B1591C" points="738.553,343.05 762.553,341.55 738.553,340.05 			"/>
			<polygon fill="#B1591C" points="738.553,359.446 768.681,357.946 738.553,356.446 			"/>
			<g>
				<path fill="#2D1818" d="M864.511,373.489c3.693-3.135,7.167-6.47,10.564-9.875c1.719-1.684,3.359-3.439,5.036-5.161l4.912-5.274
					l4.793-5.383c1.555-1.833,3.153-3.627,4.666-5.498c3.072-3.701,6.064-7.474,8.836-11.447c-3.696,3.133-7.171,6.466-10.568,9.872
					c-1.72,1.683-3.357,3.441-5.036,5.162l-4.909,5.277l-4.79,5.386c-1.557,1.831-3.151,3.629-4.666,5.498
					C870.28,365.746,867.286,369.518,864.511,373.489z"/>
				<path fill="#2D1818" d="M888,389.83c2.392-2.264,4.73-4.543,6.922-6.953c2.226-2.381,4.342-4.85,6.399-7.369
					c2.051-2.523,4.037-5.101,5.912-7.769c1.888-2.657,3.697-5.381,5.278-8.292c-2.547,2.119-4.861,4.43-7.09,6.81
					c-2.244,2.369-4.37,4.835-6.426,7.358c-2.049,2.529-4.031,5.114-5.889,7.799C891.257,384.1,889.406,386.811,888,389.83z"/>
				<path fill="#2D1818" d="M847.116,353.335c4.067-4.202,7.9-8.586,11.651-13.034c1.898-2.207,3.71-4.48,5.563-6.722l5.431-6.825
					l5.304-6.924c1.723-2.343,3.49-4.652,5.169-7.029c3.404-4.719,6.724-9.504,9.809-14.472c-4.07,4.2-7.904,8.583-11.655,13.031
					c-1.899,2.206-3.708,4.482-5.563,6.722l-5.428,6.827l-5.301,6.927c-1.724,2.342-3.489,4.653-5.169,7.03
					C853.525,343.586,850.204,348.37,847.116,353.335z"/>
				<path fill="#2D1818" d="M817.192,357.946c2.326-2.822,4.396-5.792,6.374-8.813c1.995-3.012,3.859-6.098,5.651-9.225
					c1.786-3.131,3.495-6.306,5.076-9.554c1.596-3.239,3.1-6.531,4.345-9.971c-2.33,2.821-4.4,5.789-6.378,8.81
					c-1.994,3.012-3.859,6.098-5.647,9.228c-1.782,3.133-3.492,6.308-5.072,9.556C819.945,351.217,818.44,354.508,817.192,357.946z"
					/>
				<path fill="#2D1818" d="M830.468,298.33c1.655-2.347,3.02-4.816,4.319-7.311c1.281-2.503,2.454-5.052,3.533-7.639
					c1.08-2.587,2.063-5.214,2.939-7.886c0.859-2.679,1.647-5.387,2.145-8.217c-1.658,2.346-3.025,4.813-4.323,7.31
					c-1.281,2.503-2.454,5.052-3.53,7.64c-1.076,2.588-2.06,5.216-2.935,7.888C831.76,292.794,830.969,295.501,830.468,298.33z"/>
				<path fill="#2D1818" d="M793.702,350.861c2.266-3.44,4.263-7.004,6.166-10.611c0.977-1.792,1.856-3.629,2.78-5.445l2.628-5.515
					c1.71-3.696,3.303-7.445,4.808-11.236c1.503-3.791,2.908-7.627,4.043-11.588c-2.269,3.438-4.268,7.002-6.17,10.609
					c-1.9,3.609-3.711,7.258-5.405,10.961l-2.478,5.584c-0.777,1.884-1.6,3.746-2.326,5.654
					C796.248,343.067,794.84,346.903,793.702,350.861z"/>
				<path fill="#2D1818" d="M765.106,330.851c1.157-0.724,2.057-1.601,2.881-2.524c0.813-0.93,1.525-1.919,2.15-2.961
					c0.626-1.041,1.162-2.137,1.598-3.292c0.426-1.161,0.772-2.37,0.86-3.733c-1.16,0.722-2.062,1.598-2.884,2.522
					c-0.813,0.93-1.525,1.919-2.147,2.963c-0.623,1.043-1.159,2.139-1.594,3.294C765.546,328.281,765.198,329.49,765.106,330.851z"
					/>
				<path fill="#2D1818" d="M777.702,296.167c1.005-0.59,1.745-1.317,2.405-2.086c0.649-0.774,1.194-1.603,1.649-2.478
					c0.456-0.875,0.819-1.797,1.078-2.774c0.248-0.982,0.415-2.007,0.315-3.17c-1.009,0.588-1.749,1.315-2.409,2.084
					c-0.649,0.774-1.194,1.603-1.646,2.48c-0.452,0.876-0.815,1.799-1.074,2.776C777.773,293.982,777.605,295.006,777.702,296.167z"
					/>
			</g>
			<path fill="#2D1818" d="M935.613,457.691c0,0-9.294-6.898-10.551-26.909c-1.257-20.011,9.302-32.523,9.302-32.523
				c-0.576-9.79,7.101-9.567,7.101-9.567c-0.801-10.345,8.408-18.183,8.408-18.183c1.344-14.947,11.549-20.701,11.549-20.701
				c-0.208-14,24.62-33.169,24.62-33.169s8.511,30.19,0,41.308c0,0,4.766,10.703-3.064,23.506c0,0,2.723,11.782-4.085,19.612
				c0,0,3.404,3.745,0,11.915c0,0,1.021,16.34-11.915,31.66c-12.936,15.319-24.511,15.319-24.511,15.319l-14.979,49.362h-5.141
				l-4.128-3.064L935.613,457.691z"/>
			<path fill="#DA7331" d="M984.341,325.832c0,0,1.532,15.657,0,21.444s-11.915,8.34-11.915,8.34s-3.234-8.17-1.191-13.957
				S984.341,325.832,984.341,325.832z"/>
			<path fill="#F3C962" d="M983.149,362.936c0,0,1.362,16.34-17.192,18.723C965.958,381.659,967.149,365.489,983.149,362.936z"/>
			<path fill="#F3C962" d="M980.426,387.447c0,0-2.787,16-21.394,15.66C959.032,403.106,961.702,389.149,980.426,387.447z"/>
			<path fill="#E19845" d="M977.532,407.702c0,0-7.66,10.553-15.66,12.596s-11.064,4.426-11.064,4.426s0.106-8.681,8.223-11.745
				C967.149,409.915,977.532,407.702,977.532,407.702z"/>
			<path fill="#ED9137" d="M969.729,425.745c-4.792,6.298-20.282,9.532-20.282,9.532l-4.766,14.128c0,0,6.979,0.17,16.17-8.17
				C970.043,432.893,969.729,425.745,969.729,425.745z"/>
			<path fill="#F3C962" d="M958.943,354.872c0,0-10.889,12.259,2.528,25.293C961.471,380.165,970.216,366.511,958.943,354.872z"/>
			<path fill="#F3C962" d="M947.149,377.75c0,0-7.365,14.475,7.728,25.361C954.877,403.112,961.111,390.341,947.149,377.75z"/>
			<path fill="#E19845" d="M936.591,395.279c0,0-0.2,13.038,4.977,19.471c5.177,6.432,6.199,10.177,6.199,10.177
				s5.121-7.01,0.463-14.33C943.573,403.277,936.591,395.279,936.591,395.279z"/>
			<path fill="#ED9137" d="M932.015,413.18c0.058,7.914,10.513,19.791,10.513,19.791l-4.659,14.163c0,0-5.687-4.049-8.04-16.236
				C927.476,418.713,932.015,413.18,932.015,413.18z"/>
			<g>
				<path fill="#2D1818" d="M937.532,357.946c4.302-7.21,8.152-14.619,11.843-22.098c3.719-7.467,7.209-15.034,10.573-22.656
					c3.352-7.628,6.57-15.315,9.562-23.101c3.02-7.774,5.877-15.62,8.279-23.666c-4.307,7.208-8.16,14.615-11.85,22.095
					c-3.717,7.467-7.209,15.034-10.566,22.659c-3.346,7.631-6.565,15.317-9.556,23.104
					C942.799,342.058,939.94,349.903,937.532,357.946z"/>
				<path fill="#2D1818" d="M987.234,313.064c3.399-5.998,6.309-12.182,9.107-18.409c2.768-6.238,5.353-12.546,7.781-18.914
					c2.429-6.367,4.695-12.797,6.778-19.296c2.055-6.51,3.993-13.064,5.44-19.806c-3.404,5.996-6.318,12.179-9.114,18.407
					c-2.768,6.238-5.353,12.546-7.775,18.917c-2.423,6.37-4.689,12.799-6.772,19.299
					C990.627,299.771,988.686,306.324,987.234,313.064z"/>
				<path fill="#2D1818" d="M987.234,397.83c3.924-7.878,7.384-15.922,10.68-24.025c3.325-8.093,6.415-16.27,9.374-24.493
					c2.948-8.228,5.757-16.505,8.335-24.866c2.606-8.351,5.044-16.761,7.015-25.339c-3.93,7.876-7.392,15.919-10.687,24.022
					c-3.323,8.093-6.414,16.27-9.367,24.496c-2.941,8.23-5.752,16.507-8.328,24.868C991.652,380.844,989.211,389.253,987.234,397.83
					z"/>
			</g>
			<path fill="#B4571A" d="M825.702,405.659C751.08,366.533,642.385,359.271,600,357.946c-42.385,1.325-151.08,8.587-225.702,47.713
				c-62.269,32.649-87.483,62.855-97.44,79.655l12.674,35.281L600,444.979l310.468,75.617l12.674-35.281
				C913.185,468.514,887.971,438.309,825.702,405.659z"/>
			<path fill="#2D1818" d="M813.957,385.745C720,347.957,600,352.553,600,353.064c0-0.511-120-5.106-213.957,32.681
				s-112.851,89.362-112.851,89.362l3.667,10.208c9.956-16.8,35.17-47.005,97.44-79.655C448.92,366.533,557.615,359.271,600,357.946
				c42.385,1.325,151.08,8.587,225.702,47.713c62.269,32.649,87.483,62.855,97.44,79.655l3.667-10.208
				C926.808,475.106,907.915,423.532,813.957,385.745z"/>
			<path fill="#2D1818" d="M911.906,498.085C781.787,415.362,684.766,407.702,600,407.702s-181.787,7.66-311.906,90.383
				S96.511,690.596,96.511,690.596L600,631.362l503.49,59.234C1103.49,690.596,1042.025,580.808,911.906,498.085z"/>
			<rect x="483.574" y="262.681" fill="#2D1818" width="241.532" height="166.468"/>
			<path fill="#FACE99" d="M406.979,468.723c63.786-23.862,128.532-37.962,187.943-46.011
				c-39.179,0.147-82.038,2.158-130.369,13.746c-55.706,13.356-110.793,37.655-168.411,74.285
				c-65.288,41.506-112.49,90.125-140.591,123.601c-12.064,14.372-21.74,27.262-29.043,37.618l18.816-2.214
				C188.431,610.022,272.007,519.216,406.979,468.723z"/>
			<path fill="#A44514" d="M973.787,635.702c-100.34-103.404-248.936-133.277-248.936-133.277
				c78.128,3.064,214.745,78.894,214.745,78.894c-68.681-48.391-208.617-106.468-208.617-106.468
				c50.553,3.83,219.064,86.553,219.064,86.553C890.298,513.915,708,444.213,708,444.213c84.87,13.603,181.69,63.273,234.569,93.41
				c-12.104-9.135-25.003-18.165-38.71-26.879c-57.617-36.63-112.704-60.929-168.41-74.285
				c-50.428-12.09-94.9-13.757-135.448-13.757c-1.685,0-3.38,0.004-5.079,0.011c-59.41,8.049-124.156,22.148-187.943,46.011
				C272.007,519.216,188.431,610.022,145.323,669.75L600,616.258l403.93,47.521C994.129,655.605,984.053,646.281,973.787,635.702z"
				/>
			<path fill="#2D1818" d="M953.278,1004.406c-5.34-17.574-21.04-30.856-44.208-37.4c-13.696-3.869-30.51-3.654-47.453-1.414
				v-61.716l-250.894-109.22l-5.362,2.334L600,794.656l-250.894,109.22v61.716c-16.942-2.24-33.756-2.455-47.453,1.414
				c-23.168,6.544-38.869,19.826-44.208,37.4c-4.843,15.938-0.381,33.578,12.24,48.395c9.779,11.479,22.934,17.84,38.043,18.394
				c0.716,0.026,1.434,0.04,2.155,0.04c19.786-0.001,41.233-9.843,57.798-26.626c26.88-27.233,64.585-24.108,76.425-14.867
				l18.132,10.963c47.983,36.13,88.302,58.488,137.762,58.488c1.8,0,3.585-0.035,5.362-0.094c1.776,0.059,3.562,0.094,5.362,0.094
				c49.46,0,89.78-22.358,137.762-58.488l18.132-10.963c11.839-9.241,49.545-12.366,76.425,14.867
				c16.565,16.783,38.012,26.625,57.798,26.626c0.721,0,1.438-0.014,2.155-0.04c15.109-0.554,28.264-6.914,38.043-18.394
				C953.659,1037.984,958.121,1020.344,953.278,1004.406z M359.852,1036.881c-15.041,15.239-34.375,23.95-51.72,23.32
				c-12.118-0.444-22.235-5.334-30.072-14.534c-10.144-11.907-13.821-25.781-10.089-38.064
				c4.212-13.863,17.237-24.521,36.674-30.012c6.546-1.849,13.998-2.631,21.922-2.631c7.231,0,14.854,0.652,22.54,1.738
				c24.366,5.644,52.798,16.448,77.095,35.802C405.789,1010.506,379.582,1016.891,359.852,1036.881z M932.664,1045.667
				c-7.837,9.2-17.955,14.09-30.072,14.534c-17.346,0.63-36.68-8.081-51.72-23.32c-19.731-19.99-45.938-26.375-66.35-24.382
				c24.297-19.354,52.729-30.158,77.095-35.802c7.685-1.085,15.309-1.738,22.54-1.738c7.925,0,15.376,0.782,21.922,2.631
				c19.437,5.49,32.461,16.148,36.674,30.012C946.485,1019.886,942.808,1033.76,932.664,1045.667z"/>
			<path fill="#B05E24" d="M600,1089.192c-57.903,0-103.76-33.322-167.11-84.159c-52.85-42.41-124.13-44.559-137.883-44.559
				c-1.584,0-2.479,0.027-2.572,0.031l-4.342-19.163L600,805.562l311.906,135.78l-4.352,19.162c-0.085-0.003-0.977-0.03-2.562-0.03
				c-13.753,0-85.033,2.148-137.884,44.559C703.76,1055.869,657.903,1089.192,600,1089.192z"/>
			<path fill="#2D1818" d="M600,816.468L292.085,950.51c0,0,85.021-3.064,147.064,46.723s105.702,81.958,160.851,81.958
				s98.808-32.17,160.851-81.958s147.064-46.723,147.064-46.723L600,816.468z"/>
			<path fill="#2D1818" d="M1144.34,750.34C1105.532,624.723,864.511,520.596,600,520.596S94.468,624.723,55.66,750.34
				s48.962,223.4,122.553,228.766c98.043,7.149,177.043-67.404,421.787-67.404s323.745,74.553,421.787,67.404
				C1095.379,973.74,1183.149,875.957,1144.34,750.34z"/>
			<g>
				<path fill="#B05E24" d="M1008.44,965.09h-0.007c-33.509-0.002-66.219-9.682-107.631-21.936
					C835.267,923.762,745.512,897.202,600,897.202c-145.51,0-235.259,26.558-300.791,45.949
					c-41.419,12.258-74.129,21.938-107.642,21.938c-4.106,0-8.244-0.149-12.299-0.445c-32.17-2.346-66.606-24.964-89.869-59.027
					c-17.109-25.052-42.443-77.98-19.885-150.997c17.329-56.091,82.7-111.826,179.351-152.915
					c101.041-42.954,225.744-66.61,351.136-66.61c125.393,0,250.095,23.656,351.135,66.61
					c96.651,41.088,162.023,96.823,179.352,152.915c22.558,73.017-2.776,125.946-19.886,150.998
					c-23.263,34.063-57.698,56.681-89.867,59.026C1016.677,964.941,1012.541,965.09,1008.44,965.09z M1008.434,954.09h0.007
					c3.835,0,7.702-0.14,11.493-0.416c28.905-2.107,60.166-22.898,81.583-54.259c15.992-23.416,39.655-72.942,18.46-141.549
					c-16.372-52.99-79.48-106.219-173.146-146.038C847.121,569.44,723.947,546.095,600,546.095s-247.121,23.345-346.832,65.733
					c-93.665,39.819-156.773,93.047-173.145,146.038c-21.195,68.606,2.468,118.132,18.459,141.548
					c21.417,31.361,52.678,52.152,81.584,54.26c3.79,0.276,7.66,0.416,11.5,0.416c31.919,0,63.955-9.48,104.513-21.483
					c66.184-19.585,156.816-46.404,303.92-46.404c147.105,0,237.743,26.82,303.924,46.404
					C944.482,944.609,976.519,954.088,1008.434,954.09z"/>
			</g>
			<circle fill="#2D1818" cx="313.787" cy="1015.872" r="20.426"/>
			<circle fill="#E2BF8F" cx="313.787" cy="1015.872" r="9.702"/>
			<circle fill="#2D1818" cx="896.936" cy="1015.872" r="20.426"/>
			<circle fill="#E2BF8F" cx="896.936" cy="1015.872" r="9.702"/>
			<g>
				<circle fill="#2D1818" cx="400.851" cy="1052.128" r="7.149"/>
				<circle fill="#2D1818" cx="426.201" cy="1052.128" r="7.149"/>
				<circle fill="#2D1818" cx="809.872" cy="1052.128" r="7.149"/>
				<circle fill="#2D1818" cx="784.522" cy="1052.128" r="7.149"/>
			</g>
			<circle fill="#C37526" cx="507.83" cy="933.404" r="11.234"/>
			<circle fill="#C37526" cx="487.149" cy="1000.553" r="5.106"/>
			<circle fill="#C37526" cx="702.894" cy="933.404" r="11.234"/>
			<circle fill="#C37526" cx="723.575" cy="1000.553" r="5.106"/>
			<g>
				<linearGradient id="SVGID_2_" gradientUnits="userSpaceOnUse" x1="577.6373" y1="1013.5743" x2="577.6373" y2="930.0455">
					<stop  offset="0" style="stop-color:#B66625"/>
					<stop  offset="0.4627" style="stop-color:#974107"/>
					<stop  offset="0.8395" style="stop-color:#B66625"/>
					<stop  offset="1" style="stop-color:#F3C987"/>
				</linearGradient>
				<path fill="url(#SVGID_2_)" d="M559.66,930.596c-12.765,3.521-12.511,14.298-2.043,22.468
					c10.468,8.17,47.745,60.511,47.745,60.511s-15.064-45.702-24.255-63.83C571.915,931.617,567.064,928.553,559.66,930.596z"/>
				<linearGradient id="SVGID_3_" gradientUnits="userSpaceOnUse" x1="605.3617" y1="1013.5743" x2="605.3617" y2="916.2977">
					<stop  offset="0" style="stop-color:#B66625"/>
					<stop  offset="0.4627" style="stop-color:#974107"/>
					<stop  offset="0.8395" style="stop-color:#B66625"/>
					<stop  offset="1" style="stop-color:#F3C987"/>
				</linearGradient>
				<path fill="url(#SVGID_3_)" d="M605.362,916.298c-17.872,0-15.83,19.149-10.723,36.255
					c5.106,17.106,10.723,61.021,10.723,61.021s5.617-43.915,10.723-61.021C621.191,935.447,623.234,916.298,605.362,916.298z"/>
				<linearGradient id="SVGID_4_" gradientUnits="userSpaceOnUse" x1="633.0862" y1="1013.5743" x2="633.0862" y2="930.0455">
					<stop  offset="0" style="stop-color:#B66625"/>
					<stop  offset="0.4627" style="stop-color:#974107"/>
					<stop  offset="0.8395" style="stop-color:#B66625"/>
					<stop  offset="1" style="stop-color:#F3C987"/>
				</linearGradient>
				<path fill="url(#SVGID_4_)" d="M653.106,953.064c10.468-8.17,10.723-18.947-2.043-22.468
					c-7.404-2.043-12.255,1.021-21.447,19.149c-9.191,18.128-24.255,63.83-24.255,63.83S642.638,961.234,653.106,953.064z"/>
				<linearGradient id="SVGID_5_" gradientUnits="userSpaceOnUse" x1="605.3617" y1="1054.936" x2="605.3617" y2="935.8046">
					<stop  offset="0" style="stop-color:#B66625"/>
					<stop  offset="0.4627" style="stop-color:#974107"/>
					<stop  offset="0.8395" style="stop-color:#B66625"/>
					<stop  offset="1" style="stop-color:#F3C987"/>
				</linearGradient>
				<path fill="url(#SVGID_5_)" d="M777.373,936.723c-25.203-6.128-52.777,19.915-66.82,33.192
					c-14.043,13.276-21.957,22.213-42.383,26.808s-49.787,17.617-57.447,24.511c0,0,0-6.894,17.872-18.128
					c17.872-11.234,41.362-20.426,50.298-26.553c8.936-6.128,6.383-11.463,6.383-11.463c-5.106-10.75-23.234-2.835-39.319,12.484
					c-16.085,15.319-40.596,36-40.596,36s-24.511-20.681-40.596-36c-16.085-15.319-34.213-23.234-39.319-12.484
					c0,0-2.553,5.335,6.383,11.463c8.936,6.128,32.426,15.319,50.298,26.553C600,1014.34,600,1021.234,600,1021.234
					c-7.659-6.894-37.021-19.915-57.447-24.511s-28.34-13.532-42.383-26.808c-14.043-13.277-41.617-39.319-66.82-33.192
					S414.383,974,433.35,974s13.713-13.277,13.713-13.277c-3.574,6.128-17.872,9.192-20.862-2.553
					c-2.99-11.745,14.99-19.66,38.99-5.617c24,14.043,46.979,43.404,66.638,51.319c19.66,7.915,46.723,11.489,59.23,17.106
					c3.831,1.72,6.262,6.078,7.862,11.209c-17.924-1.39-43.701-7.631-51.497-9.595c-1.222-0.308-2.296,0.834-1.949,2.045
					c4.213,14.679,43.259,19.031,55.93,20.063c0.507,4.146,0.762,7.87,1.045,10.235h2.911h2.911
					c0.282-2.365,0.537-6.089,1.045-10.235c12.671-1.032,51.717-5.384,55.93-20.063c0.348-1.211-0.727-2.353-1.949-2.045
					c-7.796,1.964-33.573,8.205-51.497,9.595c1.6-5.131,4.031-9.489,7.862-11.209c12.506-5.617,39.57-9.191,59.23-17.106
					c19.66-7.915,42.638-37.277,66.638-51.319c24-14.042,41.98-6.128,38.99,5.617c-2.99,11.745-17.288,8.681-20.862,2.553
					c0,0-5.254,13.277,13.713,13.277S802.576,942.851,777.373,936.723z"/>
			</g>
			<g>
				<path fill="#BB5E18" d="M170.308,933.648c-10.783,0.001-22.325-5.664-30.348-16.035c-5.966-7.712-9.148-16.884-8.962-25.826
					c0.193-9.263,3.945-17.185,10.565-22.306c6.62-5.121,15.229-6.764,24.245-4.622c8.702,2.065,16.78,7.451,22.746,15.163
					c5.965,7.711,9.148,16.883,8.962,25.825c-0.193,9.263-3.945,17.185-10.565,22.306
					C182.143,931.872,176.344,933.648,170.308,933.648z M158.243,871.95c-4.43,0-8.492,1.31-11.785,3.858
					c-4.67,3.612-7.32,9.346-7.461,16.145c-0.148,7.12,2.441,14.494,7.292,20.765c9.814,12.687,25.86,16.772,35.768,9.106
					c4.67-3.612,7.32-9.346,7.462-16.145c0.148-7.12-2.441-14.493-7.292-20.764h0c-4.85-6.271-11.337-10.629-18.266-12.274
					C162.009,872.179,160.094,871.95,158.243,871.95z"/>
			</g>
			
				<ellipse transform="matrix(0.791 -0.6119 0.6119 0.791 -515.6259 288.3976)" fill="#BB5E18" cx="164.257" cy="898.817" rx="7.857" ry="9.73"/>
			<circle fill="#A14213" cx="115.404" cy="847.872" r="9.702"/>
			<circle fill="#A14213" cx="121.021" cy="811.106" r="7.66"/>
			<circle fill="#A14213" cx="130.99" cy="828.468" r="7.66"/>
			<g>
				<path fill="#BB5E18" d="M1013.05,928.153c-6.62-5.121-10.372-13.043-10.565-22.306c-0.187-8.942,2.997-18.114,8.962-25.825
					c5.966-7.712,14.044-13.098,22.746-15.163c9.016-2.142,17.625-0.499,24.245,4.622c6.62,5.121,10.372,13.043,10.565,22.306
					c0.186,8.942-2.997,18.114-8.962,25.826c-8.022,10.371-19.565,16.036-30.348,16.035
					C1023.656,933.648,1017.857,931.872,1013.05,928.153z M1036.041,872.642c-6.929,1.646-13.416,6.004-18.266,12.274h0
					c-4.85,6.271-7.44,13.644-7.292,20.764c0.142,6.799,2.792,12.532,7.462,16.145c9.907,7.666,25.953,3.58,35.768-9.106
					c4.851-6.271,7.44-13.645,7.292-20.765c-0.142-6.799-2.792-12.532-7.461-16.145c-3.293-2.549-7.355-3.858-11.785-3.858
					C1039.906,871.95,1037.991,872.179,1036.041,872.642z"/>
			</g>
			
				<ellipse transform="matrix(0.6119 -0.791 0.791 0.6119 -308.9249 1168.0802)" fill="#BB5E18" cx="1035.744" cy="898.817" rx="9.73" ry="7.857"/>
			<circle fill="#A14213" cx="1084.596" cy="847.872" r="9.702"/>
			<circle fill="#A14213" cx="1078.979" cy="811.106" r="7.66"/>
			<circle fill="#A14213" cx="1069.01" cy="828.468" r="7.66"/>
			<path fill="#2D1818" d="M727.149,267.276H481.532c-8.461,0-15.319-6.859-15.319-15.319v0c0-8.461,6.859-15.319,15.319-15.319
				h245.617c8.461,0,15.319,6.859,15.319,15.319v0C742.468,260.418,735.609,267.276,727.149,267.276z"/>
			<path fill="#D08740" d="M726.638,256.042H482.043c-2.256,0-4.085-1.829-4.085-4.085l0,0c0-2.256,1.829-4.085,4.085-4.085h244.596
				c2.256,0,4.085,1.829,4.085,4.085l0,0C730.723,254.213,728.894,256.042,726.638,256.042z"/>
			<path fill="#DA872C" d="M515.592,320.383H495.83v20.936h15.621C512.03,334.073,513.444,327.064,515.592,320.383z"/>
			<rect x="495.83" y="350.861" fill="#DB9025" width="13.957" height="15.479"/>
			<path fill="#CC7622" d="M527.149,287.702h6.974c5.565-6.351,11.984-11.935,19.077-16.575h-26.051V287.702z"/>
			<rect x="677.617" y="271.127" fill="#BD6B2B" width="35.234" height="16.575"/>
			<path fill="#BE7A3C" d="M654.63,271.127c7.093,4.64,13.511,10.223,19.077,16.575h1.187v-16.575H654.63z"/>
			<rect x="495.83" y="375.883" fill="#DD9736" width="15.319" height="11.138"/>
			<path fill="#BF7633" d="M495.83,313.489h22.287c2.022-4.907,4.452-9.601,7.249-14.043H495.83V313.489z"/>
			<path fill="#BB5C0C" d="M692.238,320.383c2.148,6.681,3.562,13.69,4.141,20.936h16.472v-20.936H692.238z"/>
			<path fill="#AB561C" d="M689.713,313.489h23.138v-14.043h-30.386C685.262,303.888,687.691,308.583,689.713,313.489z"/>
			<rect x="495.83" y="271.127" fill="#C67D30" width="25.872" height="16.575"/>
			<rect x="696.681" y="375.883" fill="#C7731B" width="16.17" height="11.138"/>
			<rect x="696.681" y="399.021" fill="#BE6E2B" width="16.17" height="12.766"/>
			<rect x="696.681" y="350.861" fill="#F09A36" width="16.17" height="15.479"/>
			<rect x="495.83" y="399.021" fill="#DB8B2C" width="13.957" height="12.766"/>
			<path fill="#B77739" d="M675.023,307.812l-15.531,12.872c3.905,6.325,6.765,13.359,8.328,20.866l18.924-6.959
				C684.382,324.912,680.374,315.881,675.023,307.812z"/>
			<path fill="#D38233" d="M565.36,278.819l10.043,17.348c4.208-2.052,8.672-3.653,13.324-4.766l-3.63-19.694
				C578.158,273.271,571.544,275.678,565.36,278.819z"/>
			<path fill="#D48D37" d="M619.104,291.401c4.652,1.113,9.115,2.714,13.323,4.765l10.043-17.348
				c-6.184-3.141-12.798-5.548-19.736-7.111L619.104,291.401z"/>
			<path fill="#DFA750" d="M553.589,313.347c4.029-4.874,8.753-9.152,14.015-12.688l-10.042-17.347
				c-7.31,4.745-13.859,10.561-19.394,17.254L553.589,313.347z"/>
			<path fill="#E9C372" d="M654.241,313.347l15.422-12.781c-5.535-6.693-12.085-12.51-19.395-17.254l-10.042,17.346
				C645.488,304.195,650.212,308.473,654.241,313.347z"/>
			<path fill="#B06930" d="M540.01,341.55c1.563-7.507,4.423-14.541,8.328-20.866l-15.531-12.872
				c-5.351,8.069-9.359,17.099-11.721,26.779L540.01,341.55z"/>
			<path fill="#E6AF5C" d="M597.604,289.909c2.078-0.2,4.182-0.311,6.311-0.311c2.13,0,4.233,0.11,6.311,0.311l3.634-19.715
				c-3.265-0.379-6.579-0.596-9.945-0.596h0c-3.366,0-6.68,0.217-9.945,0.596L597.604,289.909z"/>
			<path fill="#D18838" d="M518.638,363.106h20v-8.232c0-1.407,0.06-2.799,0.148-4.185l-19.379-7.126
				c-0.491,3.703-0.77,7.473-0.77,11.31V363.106z"/>
			<rect x="669.191" y="399.021" fill="#E8AC63" width="20" height="10.894"/>
			<path fill="#BD7733" d="M688.422,343.564l-19.379,7.126c0.088,1.385,0.148,2.778,0.148,4.185v8.232h20v-8.232
				C689.191,351.037,688.913,347.267,688.422,343.564z"/>
			<rect x="518.638" y="399.021" fill="#D59849" width="20" height="10.894"/>
			<rect x="669.191" y="376.723" fill="#D39248" width="20" height="8.681"/>
			<rect x="518.638" y="376.723" fill="#D99538" width="20" height="8.681"/>
			<linearGradient id="SVGID_6_" gradientUnits="userSpaceOnUse" x1="603.2214" y1="406.3554" x2="603.2214" y2="304.2977">
				<stop  offset="0" style="stop-color:#E8721C"/>
				<stop  offset="1" style="stop-color:#FBB043"/>
			</linearGradient>
			<path fill="url(#SVGID_6_)" d="M574.626,399.021l-5.265-10.723l12,5.106c0,0-3.83-11.745-0.511-21.191l7.876,7.404
				c0,0,11.018-29.106,17.401-33.702c0,0-1.021,10.979,1.277,22.979s8.17,15.319,8.17,15.319l15.212-8.33
				c0,0,0.362,15.989-6.787,23.138l12.511-5.106l-5.724,5.106l12.36-2.253c4.719-6.042,7.862-14.344,7.151-24.3
				c-1.532-21.447-18.383-36-18.383-36s4.596,13.787,0,21.478c-4.596,7.691-11.745,6.352-11.745,6.352
				c3.319-13.277-1.787-27.574-11.745-38.553c-9.957-10.979-3.064-21.447-3.064-21.447s-14.809,10.979-13.17,24.511
				c1.638,13.532-6.234,26.553-13.638,26.553s-9.447-9.447-9.447-9.447s-12.511,12.766-13.021,26.043
				c-0.433,11.262,2.415,29.21,18.12,34.398c-3.369-5.023-4.843-10.909-4.843-10.909L574.626,399.021z"/>
			<path fill="#FEF1CF" d="M630.787,399.021l5.724-5.106L624,399.021c7.149-7.149,6.787-23.138,6.787-23.138l-15.212,8.33
				c0,0-5.872-3.319-8.17-15.319s-1.277-22.979-1.277-22.979c-6.383,4.596-17.401,33.702-17.401,33.702l-7.876-7.404
				c-3.319,9.447,0.511,21.191,0.511,21.191l-12-5.106l5.265,10.723l-5.265-3.575c0,0,1.474,5.886,4.843,10.909
				c2.809,0.928,6.022,1.454,9.708,1.454c0,0,28.598-0.107,40.087-0.107c6.155,0,13.701-3.961,19.147-10.934L630.787,399.021z"/>
			<g>
				<g>
					<path fill="#B1591C" d="M246.298,486.287h-71.489c-1.381,0-2.5-1.119-2.5-2.5s1.119-2.5,2.5-2.5h71.489
						c1.381,0,2.5,1.119,2.5,2.5S247.679,486.287,246.298,486.287z"/>
				</g>
				<g>
					<path fill="#B1591C" d="M246.298,506.032H145.322c-1.381,0-2.5-1.119-2.5-2.5s1.119-2.5,2.5-2.5h100.976
						c1.381,0,2.5,1.119,2.5,2.5S247.679,506.032,246.298,506.032z"/>
				</g>
				<g>
					<path fill="#B1591C" d="M230.298,527.819h-96.34c-1.381,0-2.5-1.119-2.5-2.5s1.119-2.5,2.5-2.5h96.34
						c1.381,0,2.5,1.119,2.5,2.5S231.679,527.819,230.298,527.819z"/>
				</g>
				<g>
					<path fill="#B1591C" d="M202.383,548.726h-72.17c-1.381,0-2.5-1.119-2.5-2.5s1.119-2.5,2.5-2.5h72.17
						c1.381,0,2.5,1.119,2.5,2.5S203.764,548.726,202.383,548.726z"/>
				</g>
			</g>
			<circle fill="#2D1818" cx="197.957" cy="449.404" r="7.149"/>
			<circle fill="#2D1818" cx="155.745" cy="475.957" r="2.723"/>
			<polygon fill="#B1591C" points="469.277,343.05 445.277,341.55 469.277,340.05 			"/>
			<polygon fill="#B1591C" points="469.277,359.446 439.149,357.946 469.277,356.446 			"/>
			<g>
				<path fill="#2D1818" d="M343.319,373.489c-3.693-3.135-7.167-6.47-10.564-9.875c-1.719-1.684-3.359-3.439-5.036-5.161
					l-4.912-5.274l-4.793-5.383c-1.555-1.833-3.152-3.627-4.666-5.498c-3.072-3.701-6.064-7.474-8.836-11.447
					c3.696,3.133,7.171,6.466,10.568,9.872c1.72,1.683,3.357,3.441,5.036,5.162l4.909,5.277l4.79,5.386
					c1.557,1.831,3.151,3.629,4.666,5.498C337.55,365.746,340.544,369.518,343.319,373.489z"/>
				<path fill="#2D1818" d="M319.83,389.83c-2.392-2.264-4.73-4.543-6.922-6.953c-2.226-2.381-4.342-4.85-6.399-7.369
					c-2.051-2.523-4.037-5.101-5.912-7.769c-1.888-2.657-3.697-5.381-5.278-8.292c2.547,2.119,4.861,4.43,7.09,6.81
					c2.244,2.369,4.37,4.835,6.426,7.358c2.049,2.529,4.031,5.114,5.889,7.799C316.573,384.1,318.423,386.811,319.83,389.83z"/>
				<path fill="#2D1818" d="M360.714,353.335c-4.067-4.202-7.9-8.586-11.651-13.034c-1.898-2.207-3.71-4.48-5.563-6.722
					l-5.431-6.825l-5.304-6.924c-1.723-2.343-3.49-4.652-5.169-7.029c-3.404-4.719-6.724-9.504-9.809-14.472
					c4.07,4.2,7.904,8.583,11.655,13.031c1.899,2.206,3.708,4.482,5.563,6.722l5.428,6.827l5.301,6.927
					c1.725,2.342,3.489,4.653,5.169,7.03C354.305,343.586,357.626,348.37,360.714,353.335z"/>
				<path fill="#2D1818" d="M390.638,357.946c-2.326-2.822-4.396-5.792-6.374-8.813c-1.995-3.012-3.859-6.098-5.651-9.225
					c-1.786-3.131-3.495-6.306-5.076-9.554c-1.596-3.239-3.1-6.531-4.345-9.971c2.33,2.821,4.4,5.789,6.378,8.81
					c1.994,3.012,3.859,6.098,5.647,9.228c1.782,3.133,3.492,6.308,5.072,9.556C387.885,351.217,389.39,354.508,390.638,357.946z"/>
				<path fill="#2D1818" d="M377.362,298.33c-1.655-2.347-3.02-4.816-4.319-7.311c-1.281-2.503-2.454-5.052-3.533-7.639
					c-1.08-2.587-2.063-5.214-2.939-7.886c-0.859-2.679-1.647-5.387-2.145-8.217c1.658,2.346,3.025,4.813,4.323,7.31
					c1.281,2.503,2.454,5.052,3.53,7.64c1.076,2.588,2.06,5.216,2.935,7.888C376.07,292.794,376.861,295.501,377.362,298.33z"/>
				<path fill="#2D1818" d="M414.128,350.861c-2.266-3.44-4.263-7.004-6.166-10.611c-0.977-1.792-1.856-3.629-2.78-5.445
					l-2.628-5.515c-1.71-3.696-3.303-7.445-4.808-11.236c-1.503-3.791-2.908-7.627-4.043-11.588
					c2.269,3.438,4.268,7.002,6.17,10.609c1.9,3.609,3.711,7.258,5.405,10.961l2.478,5.584c0.777,1.884,1.6,3.746,2.326,5.654
					C411.582,343.067,412.989,346.903,414.128,350.861z"/>
				<path fill="#2D1818" d="M442.723,330.851c-1.157-0.724-2.057-1.601-2.881-2.524c-0.813-0.93-1.525-1.919-2.15-2.961
					c-0.626-1.041-1.162-2.137-1.598-3.292c-0.426-1.161-0.772-2.37-0.86-3.733c1.16,0.722,2.062,1.598,2.884,2.522
					c0.813,0.93,1.525,1.919,2.147,2.963c0.623,1.043,1.159,2.139,1.594,3.294C442.284,328.281,442.632,329.49,442.723,330.851z"/>
				<path fill="#2D1818" d="M430.128,296.167c-1.005-0.59-1.745-1.317-2.405-2.086c-0.649-0.774-1.194-1.603-1.649-2.478
					c-0.456-0.875-0.819-1.797-1.078-2.774c-0.248-0.982-0.415-2.007-0.315-3.17c1.009,0.588,1.749,1.315,2.409,2.084
					c0.649,0.774,1.194,1.603,1.646,2.48c0.452,0.876,0.815,1.799,1.074,2.776C430.057,293.982,430.225,295.006,430.128,296.167z"/>
			</g>
			<path fill="#2D1818" d="M272.217,457.691c0,0,9.294-6.898,10.551-26.909c1.257-20.011-9.302-32.523-9.302-32.523
				c0.576-9.79-7.101-9.567-7.101-9.567c0.801-10.345-8.408-18.183-8.408-18.183c-1.344-14.947-11.55-20.701-11.55-20.701
				c0.208-14-24.62-33.169-24.62-33.169s-8.511,30.19,0,41.308c0,0-4.766,10.703,3.064,23.506c0,0-2.723,11.782,4.085,19.612
				c0,0-3.404,3.745,0,11.915c0,0-1.021,16.34,11.915,31.66c12.936,15.319,24.511,15.319,24.511,15.319l14.979,49.362h5.141
				l4.128-3.064L272.217,457.691z"/>
			<path fill="#DA7331" d="M223.489,325.832c0,0-1.532,15.657,0,21.444c1.532,5.787,11.915,8.34,11.915,8.34
				s3.234-8.17,1.191-13.957C234.553,335.872,223.489,325.832,223.489,325.832z"/>
			<path fill="#F3C962" d="M224.681,362.936c0,0-1.362,16.34,17.191,18.723C241.872,381.659,240.681,365.489,224.681,362.936z"/>
			<path fill="#F3C962" d="M227.404,387.447c0,0,2.787,16,21.394,15.66C248.798,403.106,246.128,389.149,227.404,387.447z"/>
			<path fill="#E19845" d="M230.298,407.702c0,0,7.66,10.553,15.66,12.596s11.064,4.426,11.064,4.426s-0.106-8.681-8.223-11.745
				S230.298,407.702,230.298,407.702z"/>
			<path fill="#ED9137" d="M238.101,425.745c4.793,6.298,20.282,9.532,20.282,9.532l4.766,14.128c0,0-6.979,0.17-16.17-8.17
				C237.787,432.893,238.101,425.745,238.101,425.745z"/>
			<path fill="#F3C962" d="M248.886,354.872c0,0,10.889,12.259-2.528,25.293C246.359,380.165,237.614,366.511,248.886,354.872z"/>
			<path fill="#F3C962" d="M260.681,377.75c0,0,7.365,14.475-7.728,25.361C252.953,403.112,246.719,390.341,260.681,377.75z"/>
			<path fill="#E19845" d="M271.239,395.279c0,0,0.2,13.038-4.977,19.471c-5.177,6.432-6.199,10.177-6.199,10.177
				s-5.121-7.01-0.463-14.33C264.257,403.277,271.239,395.279,271.239,395.279z"/>
			<path fill="#ED9137" d="M275.815,413.18c-0.058,7.914-10.513,19.791-10.513,19.791l4.659,14.163c0,0,5.687-4.049,8.04-16.236
				C280.354,418.713,275.815,413.18,275.815,413.18z"/>
			<g>
				<path fill="#2D1818" d="M270.298,357.946c-4.302-7.21-8.152-14.619-11.843-22.098c-3.719-7.467-7.209-15.034-10.573-22.656
					c-3.352-7.628-6.57-15.315-9.562-23.101c-3.02-7.774-5.876-15.62-8.279-23.666c4.307,7.208,8.16,14.615,11.85,22.095
					c3.717,7.467,7.209,15.034,10.566,22.659c3.346,7.631,6.565,15.317,9.556,23.104
					C265.031,342.058,267.89,349.903,270.298,357.946z"/>
				<path fill="#2D1818" d="M220.596,313.064c-3.399-5.998-6.309-12.182-9.107-18.409c-2.768-6.238-5.353-12.546-7.781-18.914
					c-2.429-6.367-4.695-12.797-6.778-19.296c-2.055-6.51-3.993-13.064-5.44-19.806c3.404,5.996,6.318,12.179,9.114,18.407
					c2.768,6.238,5.353,12.546,7.775,18.917c2.423,6.37,4.689,12.799,6.772,19.299C217.203,299.771,219.143,306.324,220.596,313.064
					z"/>
				<path fill="#2D1818" d="M220.596,397.83c-3.924-7.878-7.384-15.922-10.68-24.025c-3.325-8.093-6.415-16.27-9.374-24.493
					c-2.948-8.228-5.757-16.505-8.335-24.866c-2.606-8.351-5.044-16.761-7.015-25.339c3.93,7.876,7.392,15.919,10.687,24.022
					c3.323,8.093,6.414,16.27,9.367,24.496c2.941,8.23,5.752,16.507,8.328,24.868C216.178,380.844,218.619,389.253,220.596,397.83z"
					/>
			</g>
			<g>
				<path fill="#2D1818" d="M705.872,175.362c-1.532-18.383-25.904-21.787-25.904-21.787s3.606-10.553-1.5-23.83
					s-22.691-6.468-22.691-6.468s-0.346-12.596-14.7-16.34c-14.354-3.745-19.46,6.128-19.46,6.128s-2.213-12.255-17.277-12.255
					s-17.277,12.255-17.277,12.255s-5.106-9.872-19.46-6.128s-14.7,16.34-14.7,16.34s-17.585-6.809-22.691,6.468
					s-1.5,23.83-1.5,23.83s-24.372,3.404-25.904,21.787c-1.532,18.383,12.784,24.511,12.784,24.511l13.12,19.745
					c18.585,3.404,75.628,4.426,75.628,4.426s57.043-1.021,75.628-4.426l13.12-19.745
					C693.089,199.872,707.404,193.744,705.872,175.362z"/>
				<linearGradient id="SVGID_7_" gradientUnits="userSpaceOnUse" x1="513.7842" y1="163.4351" x2="694.0457" y2="163.4351">
					<stop  offset="0" style="stop-color:#CE6F29"/>
					<stop  offset="0.4232" style="stop-color:#F5B04F"/>
					<stop  offset="1" style="stop-color:#C86418"/>
				</linearGradient>
				<path fill="url(#SVGID_7_)" d="M563.234,135.191c0,0-3.745-9.872,6.128-14.979s12.596,2.383,12.596,2.383l6.77,52.766
					c0,0-13.578-35.064-17.663-39.149C566.979,132.128,563.234,135.191,563.234,135.191z M544.511,151.872
					c0,0,5.787,2.383,19.404,20.426c13.617,18.043,24.812,39.489,24.812,39.489h7.869c0,0-15.66-41.191-27.234-57.191
					S545.532,142.34,544.511,151.872z M552.886,136.893c0,0,0.817-6.468-8.375-4.426s-5.724,17.702-5.724,17.702
					S543.558,135.532,552.886,136.893z M540.175,164.468c-11.324-6.128-32.735,6.128-24.582,18.723
					c8.153,12.596,24.582,27.574,24.582,27.574h15.87c0,0-10.853-16.947-19.704-23.452s-14.638-8.207-14.638-8.207l5.447-6.468
					c0,0,8.082,1.776,20.722,14.675c12.64,12.899,19.733,24.473,19.733,24.473h14.354
					C581.957,211.787,551.498,170.596,540.175,164.468z M603.915,115.106c0,0-11.209-2.043-9.945,32.34
					c1.264,34.383,5.349,53.447,9.945,64.34c4.596-10.894,8.681-29.957,9.945-64.34
					C615.124,113.064,603.915,115.106,603.915,115.106z M644.596,135.191c0,0,3.745-9.872-6.128-14.979s-12.596,2.383-12.596,2.383
					l-6.77,52.766c0,0,13.578-35.064,17.663-39.149C640.851,132.128,644.596,135.191,644.596,135.191z M663.319,151.872
					c-1.021-9.532-13.277-13.277-24.851,2.723s-27.234,57.191-27.234,57.191h7.869c0,0,11.195-21.447,24.812-39.489
					C657.532,154.255,663.319,151.872,663.319,151.872z M669.043,150.17c0,0,3.468-15.66-5.724-17.702s-8.375,4.426-8.375,4.426
					C664.271,135.532,669.043,150.17,669.043,150.17z M667.655,164.468c-11.324,6.128-41.783,47.319-41.783,47.319h14.354
					c0,0,7.093-11.574,19.733-24.473c12.64-12.899,20.722-14.675,20.722-14.675l5.447,6.468c0,0-5.787,1.702-14.638,8.207
					s-19.704,23.452-19.704,23.452h15.87c0,0,16.43-14.979,24.582-27.574C700.39,170.596,678.979,158.34,667.655,164.468z"/>
			</g>
		</g>
		<g>
			<g>
				<g>
					<path fill="#FEF8CB" d="M576.214,483.84c-0.523,0.03-0.785,0.046-1.308,0.077c-0.177-0.611-0.414-1.038-0.709-1.282
						c-0.296-0.243-0.794-0.344-1.494-0.298c-4.683,0.305-7.023,0.487-11.699,0.912c0.935,10.306,1.403,15.46,2.339,25.766
						c0.062,0.683,0.219,1.136,0.471,1.36c0.252,0.223,0.714,0.387,1.385,0.492c0.042,0.488,0.064,0.732,0.106,1.221
						c-4.421,0.384-6.629,0.604-11.041,1.102c-0.055-0.487-0.082-0.73-0.137-1.217c0.64-0.203,1.069-0.464,1.282-0.783
						c0.214-0.319,0.288-0.787,0.221-1.404c-1.12-10.288-1.679-15.432-2.799-25.72c-4.67,0.508-7.003,0.792-11.662,1.42
						c-0.697,0.094-1.159,0.273-1.389,0.535c-0.23,0.263-0.387,0.73-0.47,1.401c-0.52,0.072-0.78,0.109-1.3,0.183
						c-0.519-3.648-0.779-5.472-1.298-9.12c0.53-0.076,0.795-0.113,1.326-0.187c0.262,0.59,0.532,0.908,0.808,0.951
						c0.276,0.045,0.766,0.018,1.472-0.077c10.579-1.465,21.311-2.535,31.971-3.19c0.354-0.023,0.647-0.042,0.878-0.056
						c0.23-0.015,0.424-0.059,0.58-0.135c0.156-0.075,0.282-0.196,0.379-0.367c0.096-0.169,0.17-0.419,0.222-0.75
						c0.534-0.032,0.801-0.048,1.335-0.079C575.894,478.293,576.001,480.142,576.214,483.84z"/>
					<path fill="#FEF8CB" d="M623.139,510.963c-4.449-0.213-6.675-0.29-11.127-0.387c0.011-0.49,0.016-0.735,0.027-1.225
						c0.629-0.149,1.062-0.335,1.299-0.558c0.235-0.222,0.364-0.693,0.382-1.412c0.118-4.605,0.177-6.907,0.296-11.511
						c-8.047-0.207-12.073-0.219-20.121-0.062c0.09,4.605,0.135,6.908,0.224,11.513c0.013,0.686,0.129,1.141,0.348,1.366
						c0.218,0.224,0.675,0.428,1.37,0.613c0.008,0.49,0.011,0.735,0.019,1.225c-4.472,0.07-6.708,0.134-11.178,0.32
						c-0.02-0.49-0.031-0.734-0.051-1.224c0.683-0.224,1.127-0.454,1.333-0.691c0.206-0.237,0.296-0.698,0.27-1.383
						c-0.365-9.679-0.729-19.358-1.094-29.037c-0.025-0.652-0.157-1.097-0.396-1.334c-0.24-0.236-0.734-0.42-1.484-0.553
						c-0.02-0.49-0.031-0.734-0.051-1.224c4.838-0.201,7.258-0.27,12.098-0.346c0.008,0.49,0.011,0.735,0.019,1.225
						c-0.707,0.175-1.182,0.396-1.424,0.662c-0.244,0.266-0.358,0.71-0.346,1.33c0.088,4.507,0.132,6.761,0.22,11.268
						c8.161-0.159,12.244-0.146,20.404,0.063c0.116-4.507,0.174-6.76,0.289-11.266c0.018-0.686-0.076-1.145-0.283-1.38
						c-0.207-0.233-0.68-0.441-1.421-0.621c0.011-0.49,0.016-0.735,0.027-1.225c4.819,0.106,7.228,0.189,12.043,0.42
						c-0.023,0.489-0.035,0.734-0.058,1.224c-0.717,0.13-1.194,0.312-1.436,0.547c-0.241,0.235-0.375,0.679-0.404,1.331
						c-0.426,9.676-0.851,19.353-1.277,29.029c-0.029,0.653,0.042,1.114,0.212,1.383c0.17,0.27,0.613,0.501,1.329,0.699
						C623.174,510.229,623.162,510.474,623.139,510.963z"/>
					<path fill="#FEF8CB" d="M663.118,515.935c-0.468-0.067-0.701-0.1-1.169-0.165c-0.039-0.434-0.153-0.755-0.339-0.962
						c-0.188-0.208-0.673-0.365-1.455-0.471c-9.967-1.382-20.083-2.386-30.128-2.989c0.031-0.489,0.047-0.734,0.078-1.223
						c0.635-0.123,1.084-0.298,1.347-0.526c0.263-0.228,0.419-0.684,0.465-1.368c0.655-9.664,1.309-19.327,1.964-28.991
						c0.044-0.651-0.05-1.108-0.281-1.37c-0.231-0.261-0.695-0.496-1.392-0.705c0.031-0.489,0.047-0.734,0.078-1.223
						c10.776,0.818,21.404,1.868,32.132,3.171c0.741,0.099,1.259,0.121,1.555,0.062c0.295-0.059,0.537-0.371,0.724-0.939
						c0.531,0.073,0.796,0.111,1.326,0.186c-0.513,3.629-0.77,5.444-1.283,9.073c-0.52-0.074-0.78-0.11-1.3-0.182
						c-0.063-0.569-0.189-1.007-0.377-1.313c-0.189-0.306-0.579-0.5-1.171-0.579c-8.755-1.178-13.145-1.661-21.935-2.416
						c-0.287,3.339-0.43,5.009-0.717,8.348c5.108,0.439,7.66,0.695,12.757,1.279c0.719,0.082,1.211,0.034,1.476-0.149
						c0.264-0.182,0.539-0.585,0.822-1.21c0.495,0.059,0.742,0.089,1.237,0.149c-0.437,3.58-0.656,5.37-1.093,8.95
						c-0.485-0.059-0.727-0.089-1.212-0.146c-0.092-0.669-0.259-1.134-0.502-1.392c-0.243-0.258-0.704-0.428-1.38-0.505
						c-5.032-0.577-7.552-0.829-12.595-1.263c-0.297,3.456-0.445,5.185-0.742,8.641c8.394,0.721,12.586,1.183,20.947,2.31
						c0.696,0.094,1.182,0.053,1.458-0.122c0.276-0.176,0.544-0.575,0.801-1.2c0.478,0.067,0.717,0.1,1.194,0.168
						C663.893,510.492,663.635,512.306,663.118,515.935z"/>
				</g>
			</g>
		</g>
		<g>
			<g>
				<path fill="#B05E24" d="M227.445,809.791l-1.46-3.084c1.794-1.487,2.807-2.77,3.04-3.845c0.233-1.074-0.154-2.676-1.16-4.803
					l-45.257-95.607c-1.007-2.127-1.996-3.432-2.968-3.919c-0.972-0.483-2.606-0.514-4.903-0.09l-1.41-2.978l38.706-18.936
					l1.41,2.978c-1.823,1.592-2.86,2.95-3.108,4.074c-0.248,1.127,0.115,2.717,1.088,4.772l15.052,31.799l50.689-24.798
					l-15.052-31.799c-0.973-2.056-1.985-3.328-3.037-3.818c-1.051-0.488-2.757-0.506-5.119-0.05l-1.41-2.979l38.801-18.982
					l1.41,2.979c-1.761,1.561-2.757,2.877-2.99,3.951c-0.233,1.076,0.154,2.675,1.16,4.803l45.257,95.607
					c1.007,2.127,1.996,3.434,2.968,3.918c0.971,0.486,2.588,0.481,4.853-0.017l1.46,3.084l-38.801,18.982l-1.46-3.084
					c1.824-1.59,2.876-2.956,3.155-4.098c0.28-1.14-0.05-2.703-0.99-4.689l-17.72-37.435l-50.689,24.798l17.72,37.435
					c0.94,1.986,1.919,3.232,2.939,3.736c1.019,0.506,2.71,0.529,5.071,0.073l1.46,3.084L227.445,809.791z"/>
				<path fill="#B05E24" d="M364.622,749.859l-0.881-3.304c2.031-1.13,3.257-2.201,3.68-3.216c0.422-1.013,0.329-2.659-0.278-4.938
					L339.82,636c-0.608-2.278-1.346-3.745-2.214-4.403c-0.869-0.656-2.47-0.989-4.804-0.999l-0.851-3.189l41.457-11.432l0.851,3.189
					c-2.078,1.227-3.342,2.37-3.787,3.429c-0.447,1.061-0.375,2.692,0.212,4.894l27.323,102.401
					c0.567,2.127,1.306,3.534,2.219,4.219c0.911,0.687,2.57,1.024,4.973,1.014l0.881,3.303L364.622,749.859z"/>
				<path fill="#B05E24" d="M528.048,687.689c1.951-0.273,3.278-0.836,3.979-1.689c0.7-0.853,1.16-2.564,1.38-5.139l3.032-0.425
					l5.646,41.622l-3.032,0.425c-0.897-2.417-1.779-3.94-2.645-4.573c-0.868-0.634-2.312-0.808-4.332-0.524l-106.224,14.894
					l-0.46-3.391c2.156-0.856,3.506-1.761,4.053-2.713c0.545-0.949,0.66-2.594,0.343-4.933l-14.26-105.107
					c-0.317-2.338-0.866-3.888-1.644-4.654c-0.78-0.764-2.326-1.301-4.64-1.613l-0.444-3.274l42.552-5.966l0.444,3.274
					c-2.215,0.947-3.612,1.917-4.186,2.91c-0.576,0.995-0.71,2.622-0.403,4.881l11.626,85.699L528.048,687.689z"/>
				<path fill="#B05E24" d="M663.737,687.003c1.968,0.023,3.363-0.333,4.181-1.072c0.817-0.737,1.522-2.361,2.113-4.873l3.061,0.036
					l-0.476,42.013l-3.06-0.036c-0.536-2.525-1.185-4.165-1.95-4.921c-0.767-0.758-2.169-1.146-4.208-1.171l-107.221-1.256
					l0.039-3.422c2.257-0.523,3.724-1.215,4.403-2.073c0.678-0.857,1.031-2.467,1.058-4.827l1.203-106.095
					c0.026-2.36-0.29-3.976-0.948-4.851c-0.66-0.873-2.111-1.636-4.354-2.293l0.037-3.304l42.952,0.503l-0.037,3.305
					c-2.329,0.603-3.851,1.353-4.564,2.248c-0.715,0.897-1.084,2.486-1.109,4.767l-0.98,86.504L663.737,687.003z"/>
				<path fill="#B05E24" d="M749.712,631.9l-11.424,84.536c-0.316,2.339-0.203,3.983,0.345,4.933
					c0.546,0.951,1.897,1.854,4.055,2.711l-0.458,3.391l-42.66-5.958l0.458-3.391c2.385-0.302,3.954-0.878,4.708-1.726
					s1.273-2.324,1.557-4.429l11.425-84.536l-33.564-4.688c-1.952-0.272-3.399-0.076-4.34,0.585
					c-0.942,0.663-1.856,2.164-2.74,4.501l-2.927-0.409l5.815-43.028l2.928,0.409c0.209,2.65,0.662,4.422,1.359,5.312
					c0.695,0.892,2.054,1.478,4.077,1.761l99.121,13.844c2.021,0.282,3.485,0.09,4.393-0.578c0.906-0.666,1.778-2.253,2.614-4.757
					l3.032,0.423l-5.815,43.028l-3.032-0.424c-0.162-2.483-0.608-4.174-1.339-5.071c-0.731-0.895-2.074-1.48-4.024-1.753
					L749.712,631.9z"/>
				<path fill="#B05E24" d="M850.275,756.53c-18.373-6.175-31.605-17.211-39.699-33.107c-8.096-15.898-9.239-32.772-3.432-50.628
					c5.832-17.929,16.605-30.778,32.324-38.547c15.716-7.77,32.828-8.544,51.333-2.324c18.503,6.22,31.789,17.211,39.854,32.974
					c8.063,15.763,9.181,32.609,3.35,50.538c-5.807,17.855-16.621,30.711-32.442,38.569
					C885.741,761.863,868.645,762.704,850.275,756.53z M838.536,683.594c-3.378,10.385-3.175,19.673,0.609,27.863
					c3.783,8.191,10.585,13.938,20.405,17.238c9.62,3.233,18.355,2.688,26.208-1.633s13.456-11.637,16.809-21.946
					c3.328-10.233,3.084-19.515-0.727-27.84c-3.815-8.325-10.53-14.105-20.151-17.339c-9.553-3.212-18.302-2.629-26.245,1.744
					C847.5,666.056,841.864,673.361,838.536,683.594z"/>
				<path fill="#B05E24" d="M922.675,779.545l1.913-2.816c2.159,0.848,3.756,1.108,4.792,0.782c1.034-0.326,2.21-1.461,3.529-3.403
					l59.298-87.313c1.319-1.942,1.944-3.462,1.879-4.562c-0.067-1.098-0.851-2.556-2.352-4.375l1.847-2.72l59.232,41.574
					c11.58,8.128,18.616,17.347,21.108,27.651c2.492,10.307,0.197,20.672-6.882,31.096c-3.826,5.633-8.405,10.045-13.734,13.235
					c-5.332,3.191-10.83,4.805-16.498,4.842c-4.667,0.073-9.563-0.997-14.686-3.208c-5.126-2.211-12.002-6.345-20.628-12.399
					l-21.887-15.361l-20.382,30.011c-1.232,1.813-1.811,3.296-1.737,4.446c0.072,1.15,0.89,2.656,2.449,4.515l-1.913,2.816
					L922.675,779.545z M1010.013,717.793l-16.094,23.698l20.15,14.143c7.237,5.08,13.125,7.803,17.666,8.169
					c4.539,0.366,8.216-1.523,11.031-5.668c2.945-4.337,3.493-8.448,1.641-12.33c-1.853-3.881-6.861-8.688-15.025-14.417
					L1010.013,717.793z"/>
			</g>
			<g>
				<path fill="#FEF8CB" d="M221.53,804.327l-1.46-3.084c1.794-1.487,2.807-2.77,3.04-3.845c0.233-1.074-0.154-2.676-1.16-4.803
					l-45.257-95.607c-1.007-2.127-1.996-3.432-2.968-3.919c-0.972-0.483-2.606-0.514-4.903-0.09l-1.41-2.978l38.706-18.936
					l1.41,2.978c-1.823,1.592-2.86,2.95-3.108,4.074c-0.248,1.127,0.115,2.717,1.088,4.772l15.052,31.799l50.689-24.798
					l-15.052-31.799c-0.973-2.056-1.985-3.328-3.037-3.818c-1.051-0.488-2.757-0.506-5.119-0.05l-1.41-2.979l38.801-18.982
					l1.41,2.979c-1.761,1.561-2.757,2.877-2.99,3.951c-0.233,1.076,0.154,2.675,1.16,4.803l45.257,95.607
					c1.007,2.127,1.996,3.434,2.968,3.918c0.971,0.486,2.588,0.481,4.853-0.017l1.46,3.084l-38.801,18.982l-1.46-3.084
					c1.824-1.59,2.876-2.956,3.155-4.098c0.28-1.14-0.05-2.703-0.99-4.689l-17.72-37.435l-50.689,24.798l17.72,37.435
					c0.94,1.986,1.919,3.232,2.939,3.736c1.019,0.506,2.71,0.529,5.071,0.073l1.46,3.084L221.53,804.327z"/>
				<path fill="#FEF8CB" d="M358.707,744.395l-0.881-3.304c2.031-1.13,3.257-2.201,3.68-3.216c0.422-1.013,0.329-2.659-0.278-4.938
					l-27.323-102.401c-0.608-2.278-1.346-3.745-2.214-4.403c-0.869-0.656-2.47-0.989-4.804-0.999l-0.851-3.189l41.457-11.432
					l0.851,3.189c-2.078,1.227-3.342,2.37-3.787,3.429c-0.447,1.061-0.375,2.692,0.212,4.894l27.323,102.401
					c0.567,2.127,1.306,3.534,2.219,4.219c0.911,0.687,2.57,1.024,4.973,1.014l0.881,3.303L358.707,744.395z"/>
				<path fill="#FEF8CB" d="M522.133,682.225c1.951-0.273,3.278-0.836,3.979-1.689c0.7-0.853,1.16-2.564,1.38-5.139l3.032-0.425
					l5.646,41.622l-3.032,0.425c-0.897-2.417-1.779-3.94-2.645-4.573c-0.868-0.634-2.312-0.808-4.332-0.524l-106.224,14.894
					l-0.46-3.391c2.156-0.856,3.506-1.761,4.053-2.713c0.545-0.949,0.66-2.594,0.343-4.933l-14.26-105.107
					c-0.318-2.338-0.866-3.888-1.644-4.654c-0.78-0.764-2.326-1.301-4.64-1.613l-0.444-3.274l42.552-5.966l0.444,3.274
					c-2.215,0.947-3.612,1.917-4.186,2.91c-0.576,0.995-0.71,2.622-0.403,4.881l11.626,85.699L522.133,682.225z"/>
				<path fill="#FEF8CB" d="M657.823,681.539c1.968,0.023,3.363-0.333,4.181-1.072c0.817-0.737,1.522-2.361,2.113-4.873l3.061,0.036
					l-0.476,42.013l-3.06-0.036c-0.536-2.525-1.185-4.165-1.95-4.921c-0.767-0.758-2.169-1.146-4.208-1.171l-107.221-1.256
					l0.039-3.422c2.257-0.523,3.724-1.215,4.403-2.073c0.678-0.857,1.031-2.467,1.058-4.827l1.203-106.095
					c0.026-2.36-0.29-3.976-0.948-4.851c-0.66-0.873-2.111-1.636-4.354-2.293l0.037-3.304l42.952,0.503l-0.037,3.305
					c-2.33,0.603-3.851,1.353-4.564,2.248c-0.715,0.897-1.084,2.486-1.109,4.767l-0.98,86.504L657.823,681.539z"/>
				<path fill="#FEF8CB" d="M743.797,626.436l-11.424,84.536c-0.316,2.339-0.203,3.983,0.345,4.933
					c0.546,0.951,1.897,1.854,4.055,2.711l-0.458,3.391l-42.66-5.958l0.458-3.391c2.385-0.302,3.954-0.878,4.708-1.726
					s1.273-2.324,1.557-4.429l11.425-84.536l-33.564-4.688c-1.952-0.272-3.399-0.076-4.34,0.585
					c-0.942,0.663-1.856,2.164-2.74,4.501l-2.927-0.409l5.815-43.028l2.928,0.409c0.209,2.65,0.662,4.422,1.359,5.312
					c0.695,0.892,2.054,1.478,4.077,1.761l99.121,13.844c2.021,0.282,3.485,0.09,4.393-0.578c0.906-0.666,1.778-2.253,2.614-4.757
					l3.032,0.423l-5.815,43.028l-3.032-0.424c-0.162-2.483-0.608-4.174-1.339-5.071c-0.731-0.895-2.074-1.48-4.024-1.753
					L743.797,626.436z"/>
				<path fill="#FEF8CB" d="M844.361,751.066c-18.373-6.175-31.605-17.211-39.699-33.107c-8.096-15.898-9.239-32.772-3.432-50.628
					c5.832-17.929,16.605-30.778,32.324-38.547c15.717-7.77,32.828-8.544,51.333-2.324c18.503,6.22,31.789,17.211,39.854,32.974
					c8.063,15.763,9.181,32.609,3.35,50.538c-5.807,17.855-16.621,30.711-32.442,38.569
					C879.826,756.399,862.73,757.24,844.361,751.066z M832.621,678.13c-3.378,10.385-3.175,19.673,0.609,27.863
					c3.783,8.191,10.585,13.938,20.405,17.238c9.62,3.233,18.355,2.688,26.208-1.633s13.456-11.637,16.809-21.946
					c3.328-10.233,3.084-19.515-0.727-27.84c-3.815-8.325-10.53-14.105-20.151-17.339c-9.553-3.212-18.302-2.629-26.245,1.744
					C841.585,660.592,835.95,667.897,832.621,678.13z"/>
				<path fill="#FEF8CB" d="M916.76,774.081l1.913-2.816c2.159,0.848,3.756,1.108,4.792,0.782c1.034-0.326,2.21-1.461,3.529-3.403
					l59.298-87.313c1.319-1.942,1.944-3.462,1.879-4.562c-0.067-1.098-0.851-2.556-2.352-4.375l1.847-2.72l59.232,41.574
					c11.58,8.128,18.616,17.347,21.107,27.651c2.492,10.307,0.197,20.672-6.882,31.096c-3.826,5.633-8.405,10.045-13.734,13.235
					c-5.332,3.191-10.83,4.805-16.499,4.842c-4.667,0.073-9.563-0.997-14.686-3.208c-5.126-2.211-12.002-6.345-20.628-12.399
					l-21.887-15.361l-20.382,30.011c-1.232,1.813-1.811,3.296-1.737,4.446c0.072,1.15,0.89,2.656,2.449,4.515l-1.913,2.816
					L916.76,774.081z M1004.099,712.329l-16.094,23.698l20.15,14.143c7.237,5.08,13.125,7.803,17.666,8.169
					c4.539,0.366,8.216-1.523,11.031-5.668c2.945-4.337,3.493-8.448,1.641-12.33c-1.853-3.881-6.861-8.688-15.025-14.417
					L1004.099,712.329z"/>
			</g>
		</g>
		<g>
			<g>
				<path fill="#B05E24" d="M304.254,903.114c0.747,0.74,1.52,1.342,2.321,1.806c0.947,0.581,1.945,1.012,2.991,1.296l-22.363,8.481
					c0.48-0.949,0.887-1.955,1.22-3.021c0.297-0.88,0.52-1.816,0.671-2.812c0.149-0.994,0.044-1.978-0.32-2.949l-10.185-27.22
					l-20.031,7.598l10.101,26.995c0.392,1.047,0.96,1.938,1.707,2.679c0.747,0.74,1.52,1.342,2.321,1.806
					c0.947,0.58,1.945,1.012,2.991,1.296l-22.363,8.481c0.48-0.949,0.887-1.955,1.22-3.021c0.297-0.881,0.52-1.816,0.671-2.812
					c0.149-0.994,0.044-1.978-0.32-2.949l-10.353-27.668c-0.315-0.562-0.879-1.093-1.694-1.596c-0.814-0.501-1.699-0.91-2.654-1.231
					c-1.102-0.434-2.295-0.835-3.582-1.2c1.065-1.341,1.832-2.569,2.302-3.687c0.469-1.115,0.762-2.08,0.877-2.891
					c0.113-0.811,0.109-1.449-0.011-1.915c-0.123-0.465-0.197-0.734-0.225-0.81l-10.101-26.996c-0.307-0.82-0.838-1.537-1.587-2.148
					c-0.752-0.609-1.526-1.147-2.327-1.611c-0.948-0.578-1.914-1.065-2.896-1.46l22.363-8.481c-0.599,0.911-1.096,1.822-1.483,2.736
					c-0.325,0.807-0.547,1.679-0.665,2.619c-0.118,0.94,0.019,1.934,0.41,2.979l11.065,29.572l20.031-7.598l-11.024-29.46
					c-0.307-0.82-0.837-1.537-1.587-2.147c-0.752-0.61-1.526-1.148-2.327-1.612c-0.948-0.578-1.914-1.064-2.896-1.46l22.363-8.481
					c-0.599,0.911-1.096,1.822-1.483,2.737c-0.325,0.807-0.547,1.678-0.665,2.618c-0.118,0.94,0.019,1.934,0.41,2.979l10.101,26.996
					c0.028,0.075,0.147,0.327,0.362,0.758c0.212,0.431,0.604,0.922,1.177,1.472c0.571,0.552,1.4,1.091,2.485,1.616
					c1.084,0.528,2.526,0.961,4.326,1.302c-0.728,1.129-1.361,2.223-1.906,3.281c-0.509,0.876-0.921,1.8-1.235,2.771
					c-0.316,0.974-0.36,1.758-0.137,2.354l10.227,27.332C302.938,901.482,303.507,902.373,304.254,903.114z"/>
				<path fill="#B05E24" d="M353.054,881.375c1.101-0.82,2.057-1.623,2.866-2.41c0.883-0.887,1.7-1.839,2.45-2.857l0.165,17.259
					l-44.162,11.419c0.52-1.123,0.993-2.234,1.42-3.333c0.351-0.997,0.639-2.038,0.867-3.129c0.226-1.088,0.222-2.097-0.015-3.023
					l-7.069-27.709c-0.253-0.594-0.756-1.184-1.511-1.772c-0.755-0.587-1.591-1.091-2.506-1.515
					c-1.049-0.552-2.191-1.081-3.431-1.585c1.203-1.216,2.078-2.329,2.63-3.337c0.549-1.007,0.925-1.907,1.127-2.701
					c0.2-0.793,0.29-1.435,0.267-1.923c-0.025-0.487-0.055-0.809-0.095-0.964l-7.128-27.941c-0.197-0.771-0.641-1.521-1.331-2.251
					c-0.692-0.727-1.408-1.366-2.154-1.915c-0.88-0.678-1.797-1.306-2.751-1.884l43.878-11.345l8.117,15.203
					c-1.333-0.479-2.6-0.893-3.799-1.242c-1.18-0.271-2.396-0.493-3.65-0.663s-2.564-0.159-3.928,0.027l-0.426,0.11l-18.46,4.772
					l6.625,25.97l13.774-3.562l0.142-0.036c1.04-0.27,1.99-0.7,2.849-1.293c0.857-0.592,1.605-1.218,2.246-1.878
					c0.714-0.761,1.359-1.588,1.94-2.479l4.821,18.897c-0.726-0.471-1.537-0.879-2.431-1.225c-0.782-0.292-1.718-0.502-2.811-0.633
					c-1.092-0.129-2.302-0.022-3.627,0.32l-13.916,3.598l6.093,23.883l19.312-4.993
					C350.747,882.818,351.951,882.197,353.054,881.375z"/>
				<path fill="#B05E24" d="M401.312,884.797c0.809-1.035,1.476-2.045,1.998-3.03c0.439-0.888,0.786-1.882,1.039-2.981
					c0.254-1.098,0.187-2.18-0.199-3.247c-0.388-1.064-0.776-2.15-1.168-3.256c-0.394-1.104-0.762-2.071-1.106-2.902
					c-0.373-0.986-0.744-1.974-1.116-2.962l-19.2,3.423l0.112,9.948c-0.028,0.978,0.263,1.919,0.869,2.823
					c0.606,0.906,1.267,1.7,1.982,2.382c0.838,0.823,1.768,1.59,2.786,2.299l-23.531,4.195c0.661-0.766,1.215-1.554,1.668-2.364
					c0.372-0.714,0.714-1.443,1.03-2.189c0.316-0.743,0.515-1.447,0.596-2.111l-0.191-29.02c-0.001-1.134-0.38-2.16-1.137-3.08
					c-0.757-0.917-1.55-1.748-2.374-2.494c-1.032-0.788-2.114-1.568-3.24-2.34c1.869-1.224,3.28-2.366,4.236-3.429
					c0.954-1.062,1.602-2.028,1.947-2.9c0.425-0.967,0.61-1.891,0.554-2.773c-0.077-8.332-0.101-15.096-0.069-20.288
					c0.029-5.19,0.105-8,0.229-8.429c0.04-0.898-0.26-1.756-0.899-2.575c-0.642-0.816-1.318-1.567-2.034-2.251
					c-0.826-0.743-1.755-1.511-2.787-2.299l35.802-6.383c-0.797,1.115-1.457,2.165-1.977,3.148c-0.439,0.89-0.795,1.825-1.07,2.805
					c-0.274,0.981-0.254,1.808,0.064,2.48l10.008,27.27c0.164,0.377,0.423,0.857,0.775,1.442c0.35,0.587,0.878,1.181,1.58,1.785
					c0.702,0.604,1.592,1.155,2.672,1.65c1.079,0.497,2.438,0.884,4.075,1.158c-0.908,1.055-1.67,2.081-2.287,3.082
					c-0.536,0.906-0.98,1.918-1.328,3.032c-0.35,1.116-0.326,2.246,0.075,3.391c1.116,2.961,2.218,5.986,3.308,9.074
					c1.088,3.088,2.086,5.931,2.988,8.523c0.903,2.596,1.654,4.75,2.254,6.467c0.599,1.717,0.968,2.685,1.106,2.902
					c0.316,0.673,0.784,1.361,1.405,2.06c0.619,0.7,1.224,1.322,1.817,1.864c0.716,0.684,1.519,1.31,2.415,1.879L401.312,884.797z
					 M396.645,854.874l-15.115-41.919l0.101,44.596L396.645,854.874z"/>
				<path fill="#B05E24" d="M459.88,876.567c0.185-0.1,0.479-0.335,0.88-0.702c0.401-0.366,0.789-0.853,1.164-1.458
					c0.375-0.604,0.657-1.38,0.845-2.325c0.189-0.944,0.066-2.035-0.368-3.271l-10.699-20.344l-7.866,0.896l2.395,21.291
					c0.08,0.713,0.386,1.462,0.916,2.244c0.531,0.783,1.132,1.539,1.804,2.264c0.776,0.796,1.653,1.579,2.625,2.352l-23.745,2.707
					c0.687-0.88,1.322-1.796,1.904-2.747c0.502-0.78,0.953-1.573,1.355-2.383c0.4-0.808,0.57-1.49,0.507-2.046l-3.412-30.329
					c-0.169-0.623-0.586-1.277-1.254-1.966c-0.667-0.686-1.426-1.302-2.274-1.849c-0.963-0.692-2.022-1.375-3.181-2.047
					c1.359-1.037,2.378-2.018,3.063-2.938c0.682-0.922,1.178-1.761,1.487-2.519c0.307-0.758,0.484-1.381,0.528-1.867
					c0.042-0.487,0.057-0.809,0.039-0.969l-3.144-27.95c-0.098-0.872-0.442-1.736-1.03-2.594c-0.589-0.854-1.218-1.647-1.89-2.374
					c-0.778-0.794-1.61-1.624-2.493-2.486l29.281-3.339c3.205-0.365,6.247-0.21,9.127,0.465c2.879,0.677,5.457,1.748,7.739,3.214
					c2.279,1.468,4.152,3.261,5.622,5.382c1.468,2.122,2.35,4.49,2.644,7.107l2.355,20.934c0.375,3.33-0.276,6.518-1.949,9.558
					c-1.675,3.043-4.071,5.584-7.184,7.626c2.344,4.231,4.447,8.046,6.305,11.448l6.318,11.566c0.61,1.057,1.376,1.973,2.301,2.75
					c0.922,0.779,1.808,1.44,2.658,1.985c1.059,0.684,2.107,1.247,3.141,1.689L459.88,876.567z M452.51,835.967
					c2.233-0.255,4.03-1.102,5.395-2.543c1.362-1.438,1.946-3.031,1.749-4.776l-2.355-20.934c-0.205-1.823-1.13-3.263-2.773-4.322
					c-1.645-1.057-3.583-1.458-5.816-1.204l-10.052,1.146l3.8,33.779L452.51,835.967z"/>
				<path fill="#B05E24" d="M542.667,800.588c-1.439-1.111-2.917-2.101-4.437-2.968c-1.322-0.798-2.711-1.493-4.164-2.085
					c-1.456-0.59-2.768-0.851-3.939-0.779l-10.683,0.649l1.463,24.374c0.009,0.161,0.077,0.476,0.204,0.947
					c0.125,0.473,0.38,1.057,0.766,1.752c0.384,0.696,1.016,1.438,1.896,2.224c0.878,0.786,2.077,1.573,3.593,2.359
					c-1.027,0.862-1.953,1.719-2.783,2.567c-0.744,0.687-1.382,1.444-1.92,2.275c-0.537,0.833-0.838,1.571-0.895,2.213l1.836,30.588
					c0.043,0.717,0.33,1.439,0.864,2.166c0.533,0.729,1.112,1.392,1.735,1.993c0.729,0.755,1.602,1.422,2.617,1.999l-24.732,1.505
					c0.835-0.771,1.569-1.574,2.205-2.413c0.547-0.672,1.04-1.401,1.485-2.188c0.441-0.786,0.64-1.577,0.592-2.375l-1.822-30.349
					c-0.136-0.63-0.52-1.326-1.153-2.088c-0.633-0.76-1.36-1.436-2.178-2.026c-0.926-0.741-1.95-1.479-3.071-2.211
					c1.411-0.965,2.504-1.91,3.281-2.838c0.775-0.926,1.338-1.761,1.686-2.501c0.346-0.741,0.529-1.352,0.551-1.833
					c0.019-0.48,0.028-0.76,0.023-0.841l-1.463-24.374l-10.098,0.614c-1.17,0.071-2.444,0.49-3.817,1.252
					c-1.374,0.764-2.62,1.618-3.738,2.565c-1.406,1.045-2.754,2.206-4.05,3.484l3.001-18.53l51.951-3.16L542.667,800.588z"/>
				<path fill="#B05E24" d="M606.41,864.002c0.452,0.952,0.976,1.783,1.571,2.493c0.695,0.87,1.487,1.618,2.375,2.244l-23.895,0.309
					c0.772-0.728,1.495-1.534,2.168-2.422c0.577-0.726,1.103-1.529,1.582-2.414c0.477-0.884,0.71-1.845,0.696-2.883l-0.371-29.084
					l-21.403,0.276l0.368,28.846c0.015,1.118,0.248,2.151,0.7,3.103c0.452,0.952,0.975,1.783,1.571,2.494
					c0.694,0.87,1.487,1.617,2.375,2.244l-23.895,0.309c0.772-0.729,1.495-1.534,2.168-2.422c0.577-0.727,1.103-1.529,1.582-2.415
					c0.477-0.884,0.71-1.844,0.696-2.882l-0.377-29.563c-0.107-0.637-0.457-1.33-1.053-2.081c-0.596-0.75-1.29-1.439-2.079-2.068
					c-0.89-0.785-1.876-1.571-2.962-2.356c1.455-0.896,2.591-1.787,3.411-2.678c0.818-0.888,1.419-1.693,1.802-2.417
					c0.38-0.724,0.593-1.324,0.637-1.804c0.042-0.479,0.064-0.759,0.063-0.839l-0.368-28.846c-0.011-0.877-0.267-1.732-0.766-2.563
					c-0.5-0.832-1.047-1.603-1.642-2.313c-0.696-0.868-1.439-1.657-2.23-2.365l23.895-0.31c-0.871,0.651-1.646,1.339-2.319,2.065
					c-0.578,0.647-1.082,1.391-1.511,2.234c-0.429,0.844-0.636,1.824-0.622,2.941l0.404,31.598l21.403-0.276l-0.402-31.479
					c-0.011-0.877-0.267-1.732-0.766-2.564c-0.5-0.831-1.047-1.603-1.642-2.313c-0.696-0.868-1.439-1.657-2.23-2.365l23.896-0.309
					c-0.872,0.65-1.646,1.338-2.319,2.065c-0.579,0.646-1.083,1.391-1.511,2.234c-0.43,0.843-0.636,1.824-0.623,2.94l0.369,28.846
					c0.001,0.08,0.027,0.358,0.083,0.837c0.054,0.478,0.257,1.074,0.609,1.787c0.351,0.714,0.948,1.505,1.79,2.371
					c0.841,0.868,2.051,1.77,3.627,2.707c-1.066,0.812-2.031,1.623-2.901,2.432c-0.775,0.649-1.473,1.377-2.098,2.182
					c-0.627,0.807-0.933,1.529-0.925,2.167l0.372,29.204C605.725,862.017,605.958,863.05,606.41,864.002z"/>
				<path fill="#B05E24" d="M693.679,833.649c0.41-0.377,0.809-0.954,1.195-1.733c0.383-0.776,0.695-1.56,0.934-2.346
					c0.339-0.86,0.588-1.845,0.747-2.956l15.393,14.028c-0.972-0.132-1.999-0.148-3.081-0.049c-0.887,0.112-1.803,0.302-2.747,0.569
					c-0.946,0.269-1.776,0.702-2.493,1.302c-0.611,0.446-1.404,1.062-2.376,1.848c-0.974,0.786-1.995,1.61-3.069,2.47
					c-1.075,0.861-2.149,1.722-3.223,2.581c-1.074,0.86-1.973,1.63-2.694,2.31c1.827,2.419,3.652,4.856,5.479,7.312
					c1.824,2.458,3.789,5.023,5.898,7.695c0.737,0.84,1.503,1.622,2.296,2.344c0.792,0.723,1.564,1.385,2.315,1.984
					c0.844,0.687,1.691,1.332,2.539,1.938l-26.984-1.477c0.603-0.285,1.11-0.617,1.522-0.996c0.31-0.301,0.573-0.667,0.793-1.095
					c0.218-0.427,0.195-0.889-0.072-1.383c-0.46-0.583-1.104-1.358-1.932-2.323c-0.829-0.964-1.473-1.738-1.933-2.324
					c-4.168,2.729-7.849,4.626-11.045,5.689c-3.196,1.065-6.36,1.511-9.49,1.339c-8.116-0.443-14.449-2.588-18.999-6.434
					c-4.55-3.845-6.623-9.473-6.224-16.884c0.146-2.708,0.765-5.131,1.86-7.271c1.093-2.137,2.473-4.1,4.135-5.887
					c1.662-1.786,3.536-3.403,5.621-4.848c2.083-1.444,4.19-2.827,6.317-4.149c-3.167-4.808-5.393-8.886-6.68-12.233
					c-1.288-3.347-1.848-6.574-1.68-9.683c0.413-7.649,2.544-13.047,6.396-16.192c3.852-3.146,9.842-4.497,17.968-4.053l0.146,0.009
					c8.029,0.438,13.788,2.432,17.278,5.979c3.491,3.548,5.03,9.146,4.618,16.796c-0.155,2.868-0.763,5.434-1.824,7.692
					c-1.063,2.261-2.428,4.303-4.1,6.129c-1.672,1.827-3.574,3.481-5.709,4.962c-2.136,1.483-4.318,2.881-6.541,4.198
					c1.457,1.997,2.986,4.059,4.585,6.185c1.597,2.125,3.31,4.397,5.138,6.814c1.433-1.121,2.692-2.09,3.772-2.91
					c1.082-0.819,2.165-1.681,3.246-2.58C692.055,835.118,692.956,834.328,693.679,833.649z M652.015,849.351
					c-0.202,1.906,0.398,3.498,1.797,4.773s3.239,2.095,5.52,2.46c2.279,0.364,4.734,0.24,7.361-0.377
					c2.626-0.615,5.017-1.823,7.17-3.624c-2.192-2.916-4.368-5.712-6.522-8.388c-2.156-2.675-4.054-5.137-5.694-7.385
					c-2.345,1.711-4.478,3.591-6.398,5.644C653.326,844.507,652.248,846.807,652.015,849.351z M661.27,802.985
					c-0.085,1.596,0.415,3.541,1.503,5.837c1.087,2.298,2.569,4.977,4.442,8.035c2.715-1.77,5.025-3.682,6.93-5.735
					c1.905-2.053,2.932-4.473,3.084-7.264c0.163-3.027-0.415-5.356-1.733-6.987s-3.23-2.593-5.736-2.892
					c-2.525,0.023-4.529,0.771-6.015,2.249C662.258,797.704,661.434,799.958,661.27,802.985z"/>
				<path fill="#B05E24" d="M802.159,814.162c-1.202-1.368-2.464-2.624-3.792-3.768c-1.146-1.038-2.376-1.988-3.691-2.849
					c-1.317-0.859-2.556-1.368-3.719-1.524l-10.609-1.419l-3.195,24.206c-0.021,0.159-0.015,0.48,0.02,0.969
					c0.032,0.487,0.172,1.109,0.419,1.867c0.244,0.757,0.724,1.606,1.439,2.547c0.712,0.94,1.739,1.944,3.078,3.008
					c-1.172,0.649-2.244,1.312-3.219,1.984c-0.86,0.53-1.632,1.151-2.316,1.863c-0.686,0.714-1.12,1.381-1.3,2l-4.01,30.376
					c-0.094,0.712,0.05,1.477,0.438,2.293c0.384,0.817,0.826,1.58,1.324,2.29c0.572,0.882,1.303,1.704,2.189,2.467l-24.561-3.287
					c0.966-0.595,1.839-1.242,2.623-1.943c0.664-0.554,1.287-1.175,1.873-1.862c0.583-0.686,0.927-1.425,1.032-2.217l3.978-30.139
					c-0.014-0.645-0.258-1.402-0.735-2.271c-0.477-0.868-1.062-1.671-1.753-2.408c-0.767-0.906-1.633-1.828-2.593-2.762
					c1.568-0.676,2.821-1.393,3.76-2.154c0.937-0.759,1.648-1.47,2.13-2.13c0.48-0.66,0.776-1.225,0.889-1.692
					c0.111-0.468,0.172-0.741,0.182-0.82l3.195-24.206l-10.028-1.342c-1.162-0.155-2.492,0.01-3.984,0.493
					c-1.495,0.485-2.879,1.085-4.156,1.799c-1.579,0.755-3.123,1.635-4.638,2.64l6.465-17.61l51.593,6.903L802.159,814.162z"/>
				<path fill="#B05E24" d="M829.244,889.736c1.128-0.667,2.115-1.362,2.959-2.089c0.73-0.665,1.412-1.464,2.047-2.395
					c0.633-0.929,0.963-1.961,0.99-3.096c0.025-1.134,0.056-2.287,0.092-3.461c0.032-1.173,0.04-2.209,0.02-3.109
					c0.01-1.055,0.021-2.11,0.033-3.167l-19.118-3.86l-3.499,9.304c-0.38,0.9-0.45,1.884-0.213,2.948
					c0.237,1.066,0.565,2.048,0.984,2.945c0.482,1.074,1.071,2.13,1.763,3.164l-23.431-4.731c0.893-0.47,1.695-1.001,2.41-1.589
					c0.605-0.528,1.187-1.082,1.751-1.66c0.564-0.577,1.005-1.159,1.32-1.748l10.332-27.092c0.408-1.057,0.428-2.151,0.056-3.285
					c-0.372-1.132-0.81-2.197-1.308-3.194c-0.676-1.112-1.401-2.235-2.17-3.368c2.183-0.453,3.911-0.999,5.186-1.639
					c1.272-0.638,2.226-1.299,2.862-1.985c0.747-0.744,1.253-1.536,1.521-2.379c2.946-7.787,5.373-14.094,7.283-18.917
					c1.907-4.823,2.995-7.411,3.266-7.765c0.363-0.821,0.395-1.73,0.095-2.728c-0.302-0.996-0.66-1.943-1.079-2.843
					c-0.5-0.995-1.086-2.051-1.762-3.163l35.649,7.198c-1.146,0.745-2.141,1.48-2.982,2.206c-0.73,0.667-1.402,1.406-2.012,2.218
					c-0.61,0.813-0.891,1.591-0.838,2.334l-0.558,29.065c0.017,0.411,0.083,0.953,0.2,1.627c0.113,0.676,0.389,1.422,0.824,2.242
					c0.436,0.82,1.064,1.661,1.892,2.519c0.823,0.858,1.95,1.717,3.375,2.573c-1.227,0.649-2.309,1.325-3.246,2.03
					c-0.827,0.647-1.606,1.427-2.335,2.337c-0.73,0.911-1.116,1.972-1.157,3.185c-0.033,3.168-0.103,6.389-0.206,9.664
					c-0.106,3.275-0.207,6.288-0.305,9.034c-0.099,2.748-0.18,5.03-0.243,6.849s-0.071,2.854-0.021,3.108
					c0.05,0.743,0.238,1.555,0.563,2.434c0.322,0.879,0.661,1.68,1.017,2.402c0.419,0.899,0.94,1.777,1.568,2.637L829.244,889.736z
					 M835.734,860.159l1.107-44.582l-16.056,41.562L835.734,860.159z"/>
				<path fill="#B05E24" d="M886.204,903.926c0.209-0.021,0.57-0.124,1.081-0.308c0.51-0.183,1.054-0.482,1.632-0.896
					c0.576-0.412,1.132-1.02,1.667-1.819c0.534-0.799,0.837-1.854,0.908-3.162l-2.115-22.92l-7.605-2.215l-5.913,20.583
					c-0.199,0.689-0.202,1.499-0.011,2.427c0.191,0.928,0.458,1.858,0.801,2.787c0.413,1.036,0.924,2.098,1.527,3.187l-22.956-6.685
					c0.97-0.547,1.906-1.146,2.806-1.8c0.761-0.525,1.48-1.084,2.16-1.676c0.678-0.592,1.095-1.155,1.249-1.692l8.424-29.322
					c0.081-0.64-0.054-1.405-0.407-2.299c-0.355-0.892-0.82-1.754-1.394-2.587c-0.626-1.011-1.343-2.051-2.156-3.119
					c1.651-0.433,2.965-0.943,3.95-1.529c0.982-0.587,1.76-1.17,2.334-1.75c0.572-0.581,0.973-1.088,1.2-1.52
					c0.224-0.434,0.361-0.725,0.406-0.879l7.762-27.022c0.243-0.843,0.255-1.773,0.04-2.792c-0.218-1.018-0.497-1.992-0.839-2.924
					c-0.416-1.034-0.867-2.121-1.353-3.26l28.309,8.243c3.098,0.901,5.847,2.223,8.248,3.959c2.401,1.738,4.372,3.725,5.919,5.96
					c1.544,2.237,2.589,4.617,3.137,7.144c0.545,2.526,0.456,5.055-0.272,7.584l-5.813,20.238c-0.925,3.22-2.743,5.911-5.448,8.071
					c-2.707,2.161-5.889,3.581-9.542,4.262c0.549,4.812,1.035,9.147,1.452,13.008l1.419,13.123c0.16,1.211,0.519,2.353,1.076,3.428
					c0.554,1.077,1.119,2.03,1.696,2.861c0.717,1.041,1.47,1.967,2.255,2.775L886.204,903.926z M894.892,863.591
					c2.159,0.629,4.142,0.542,5.951-0.261c1.807-0.802,2.954-2.047,3.439-3.733l5.813-20.238c0.506-1.763,0.202-3.449-0.911-5.062
					c-1.115-1.611-2.751-2.732-4.91-3.361l-9.717-2.829l-9.382,32.656L894.892,863.591z"/>
				<path fill="#B05E24" d="M993.362,870.281c-0.8-1.639-1.688-3.186-2.669-4.642c-0.832-1.306-1.77-2.549-2.813-3.729
					c-1.045-1.179-2.106-1.999-3.186-2.458l-9.86-4.188l-9.43,22.497c-0.062,0.148-0.141,0.46-0.235,0.94
					c-0.096,0.479-0.124,1.116-0.085,1.912c0.038,0.795,0.277,1.741,0.72,2.839c0.44,1.097,1.169,2.338,2.181,3.72
					c-1.301,0.314-2.507,0.668-3.626,1.058c-0.969,0.283-1.875,0.678-2.723,1.183c-0.849,0.506-1.443,1.033-1.778,1.583
					l-11.833,28.232c-0.277,0.662-0.339,1.438-0.18,2.327c0.156,0.891,0.382,1.744,0.676,2.562c0.321,1.003,0.81,1.99,1.465,2.961
					l-22.828-9.698c1.088-0.317,2.1-0.71,3.04-1.177c0.787-0.358,1.55-0.791,2.294-1.299c0.742-0.507,1.269-1.128,1.577-1.864
					l11.741-28.012c0.155-0.626,0.118-1.422-0.113-2.387c-0.233-0.964-0.587-1.894-1.059-2.789
					c-0.502-1.078-1.096-2.196-1.777-3.353c1.69-0.234,3.086-0.594,4.191-1.078c1.103-0.483,1.975-0.979,2.612-1.488
					c0.636-0.51,1.07-0.975,1.302-1.396c0.229-0.422,0.36-0.669,0.391-0.743l9.429-22.498l-9.32-3.959
					c-1.081-0.459-2.407-0.653-3.972-0.583c-1.568,0.07-3.062,0.28-4.481,0.63c-1.721,0.309-3.441,0.747-5.165,1.313l10.854-15.267
					l47.952,20.371L993.362,870.281z"/>
			</g>
			<g>
				<path fill="#FEF8CB" d="M301.641,899.829c0.747,0.74,1.52,1.342,2.321,1.806c0.947,0.581,1.945,1.012,2.991,1.296l-22.363,8.481
					c0.48-0.949,0.887-1.955,1.22-3.021c0.297-0.88,0.52-1.816,0.671-2.812c0.149-0.994,0.044-1.978-0.32-2.949l-10.185-27.22
					l-20.031,7.598l10.101,26.995c0.392,1.047,0.96,1.938,1.707,2.679c0.747,0.74,1.52,1.342,2.321,1.806
					c0.947,0.58,1.945,1.012,2.991,1.296l-22.363,8.481c0.48-0.949,0.887-1.955,1.22-3.021c0.297-0.881,0.52-1.816,0.671-2.812
					c0.149-0.994,0.044-1.978-0.32-2.949l-10.353-27.668c-0.315-0.562-0.879-1.093-1.694-1.596c-0.814-0.501-1.699-0.91-2.654-1.231
					c-1.102-0.434-2.295-0.835-3.582-1.2c1.065-1.341,1.832-2.569,2.302-3.687c0.469-1.115,0.762-2.08,0.877-2.891
					c0.113-0.811,0.109-1.449-0.011-1.915c-0.123-0.465-0.197-0.734-0.225-0.81l-10.101-26.996c-0.307-0.82-0.838-1.537-1.587-2.148
					c-0.752-0.609-1.526-1.147-2.327-1.611c-0.948-0.578-1.914-1.065-2.896-1.46l22.363-8.481c-0.599,0.911-1.096,1.822-1.483,2.736
					c-0.325,0.807-0.547,1.679-0.665,2.619c-0.118,0.94,0.019,1.934,0.41,2.979l11.065,29.572l20.031-7.598l-11.024-29.46
					c-0.307-0.82-0.837-1.537-1.587-2.147c-0.752-0.61-1.526-1.148-2.327-1.612c-0.948-0.578-1.914-1.064-2.896-1.46l22.363-8.481
					c-0.599,0.911-1.096,1.822-1.483,2.737c-0.325,0.807-0.547,1.678-0.665,2.618c-0.118,0.94,0.019,1.934,0.41,2.979l10.101,26.996
					c0.028,0.075,0.147,0.327,0.362,0.758c0.212,0.431,0.604,0.922,1.177,1.472c0.571,0.552,1.4,1.091,2.485,1.616
					c1.084,0.528,2.526,0.961,4.326,1.302c-0.728,1.129-1.361,2.223-1.906,3.281c-0.509,0.876-0.921,1.8-1.235,2.771
					c-0.316,0.974-0.36,1.758-0.137,2.354l10.227,27.332C300.325,898.198,300.894,899.089,301.641,899.829z"/>
				<path fill="#FEF8CB" d="M350.441,878.091c1.101-0.82,2.057-1.623,2.866-2.41c0.883-0.887,1.7-1.839,2.45-2.857l0.165,17.259
					l-44.162,11.419c0.52-1.123,0.993-2.234,1.42-3.333c0.351-0.997,0.639-2.038,0.867-3.129c0.226-1.088,0.222-2.097-0.015-3.023
					l-7.069-27.709c-0.253-0.594-0.756-1.184-1.511-1.772c-0.755-0.587-1.591-1.091-2.506-1.515
					c-1.049-0.552-2.191-1.081-3.431-1.585c1.203-1.216,2.078-2.329,2.63-3.337c0.549-1.007,0.925-1.907,1.127-2.701
					c0.2-0.793,0.29-1.435,0.267-1.923c-0.025-0.487-0.055-0.809-0.095-0.964l-7.128-27.941c-0.197-0.771-0.641-1.521-1.331-2.251
					c-0.692-0.727-1.408-1.366-2.154-1.915c-0.88-0.678-1.797-1.306-2.751-1.884l43.878-11.345l8.116,15.203
					c-1.333-0.479-2.6-0.893-3.799-1.242c-1.18-0.271-2.396-0.493-3.65-0.663s-2.564-0.159-3.928,0.027l-0.426,0.11l-18.46,4.772
					l6.625,25.97l13.774-3.562l0.142-0.036c1.04-0.27,1.99-0.7,2.849-1.293c0.857-0.592,1.605-1.218,2.246-1.878
					c0.714-0.761,1.359-1.588,1.94-2.479l4.821,18.897c-0.726-0.471-1.537-0.879-2.431-1.225c-0.782-0.292-1.718-0.502-2.811-0.633
					c-1.092-0.129-2.302-0.022-3.627,0.32l-13.916,3.598l6.093,23.883l19.312-4.993
					C348.134,879.533,349.338,878.912,350.441,878.091z"/>
				<path fill="#FEF8CB" d="M398.7,881.513c0.809-1.035,1.476-2.045,1.998-3.03c0.439-0.888,0.786-1.882,1.039-2.981
					c0.254-1.098,0.187-2.18-0.199-3.247c-0.388-1.064-0.776-2.15-1.168-3.256c-0.394-1.104-0.762-2.071-1.106-2.902
					c-0.373-0.986-0.744-1.974-1.116-2.962l-19.2,3.423l0.112,9.948c-0.028,0.978,0.263,1.919,0.869,2.823
					c0.606,0.906,1.267,1.7,1.982,2.382c0.838,0.823,1.768,1.59,2.786,2.299l-23.531,4.195c0.661-0.766,1.215-1.554,1.668-2.364
					c0.372-0.714,0.714-1.443,1.03-2.189c0.316-0.743,0.515-1.447,0.596-2.111l-0.191-29.02c-0.001-1.134-0.38-2.16-1.137-3.08
					c-0.757-0.917-1.55-1.748-2.374-2.494c-1.032-0.788-2.114-1.568-3.24-2.34c1.869-1.224,3.28-2.366,4.236-3.429
					c0.954-1.062,1.602-2.028,1.947-2.9c0.425-0.967,0.61-1.891,0.554-2.773c-0.077-8.332-0.101-15.096-0.069-20.288
					c0.029-5.19,0.105-8,0.229-8.429c0.04-0.898-0.26-1.756-0.899-2.575c-0.642-0.816-1.318-1.567-2.034-2.251
					c-0.826-0.743-1.755-1.511-2.787-2.299l35.802-6.383c-0.797,1.115-1.457,2.165-1.977,3.148c-0.439,0.89-0.795,1.825-1.07,2.805
					c-0.274,0.981-0.254,1.808,0.064,2.48l10.008,27.27c0.164,0.377,0.423,0.857,0.775,1.442c0.35,0.587,0.878,1.181,1.58,1.785
					c0.702,0.604,1.592,1.155,2.672,1.65c1.079,0.497,2.438,0.884,4.075,1.158c-0.908,1.055-1.67,2.081-2.287,3.082
					c-0.536,0.906-0.98,1.918-1.328,3.032c-0.35,1.116-0.326,2.246,0.075,3.391c1.116,2.961,2.218,5.986,3.308,9.074
					c1.088,3.088,2.086,5.931,2.988,8.523c0.903,2.596,1.654,4.75,2.254,6.467c0.599,1.717,0.968,2.685,1.106,2.902
					c0.316,0.673,0.784,1.361,1.405,2.06c0.619,0.7,1.224,1.322,1.817,1.864c0.716,0.684,1.519,1.31,2.415,1.879L398.7,881.513z
					 M394.032,851.59l-15.115-41.919l0.101,44.596L394.032,851.59z"/>
				<path fill="#FEF8CB" d="M457.267,873.282c0.185-0.1,0.479-0.335,0.88-0.702c0.401-0.366,0.789-0.853,1.164-1.458
					c0.375-0.604,0.657-1.38,0.845-2.325c0.189-0.944,0.066-2.035-0.368-3.271l-10.699-20.344l-7.866,0.896l2.395,21.291
					c0.08,0.713,0.386,1.462,0.916,2.244c0.531,0.783,1.132,1.539,1.804,2.264c0.776,0.796,1.653,1.579,2.625,2.352l-23.745,2.707
					c0.687-0.88,1.322-1.796,1.904-2.747c0.502-0.78,0.953-1.573,1.355-2.383c0.4-0.808,0.57-1.49,0.507-2.046l-3.411-30.329
					c-0.169-0.623-0.586-1.277-1.254-1.966c-0.667-0.686-1.426-1.302-2.274-1.849c-0.963-0.692-2.022-1.375-3.181-2.047
					c1.359-1.037,2.378-2.018,3.063-2.938c0.682-0.922,1.178-1.761,1.487-2.519c0.307-0.758,0.484-1.381,0.528-1.867
					c0.042-0.487,0.057-0.809,0.039-0.969l-3.144-27.95c-0.098-0.872-0.442-1.736-1.03-2.594c-0.589-0.854-1.218-1.647-1.89-2.374
					c-0.778-0.794-1.61-1.624-2.493-2.486l29.281-3.339c3.205-0.365,6.247-0.21,9.127,0.465c2.879,0.677,5.457,1.748,7.739,3.214
					c2.279,1.468,4.152,3.261,5.622,5.382c1.468,2.122,2.35,4.49,2.644,7.107l2.355,20.934c0.375,3.33-0.276,6.518-1.949,9.558
					c-1.675,3.043-4.071,5.584-7.184,7.626c2.344,4.231,4.446,8.046,6.305,11.448l6.318,11.566c0.61,1.057,1.376,1.973,2.301,2.75
					c0.922,0.779,1.808,1.44,2.658,1.985c1.059,0.684,2.107,1.247,3.141,1.689L457.267,873.282z M449.897,832.683
					c2.233-0.255,4.03-1.102,5.395-2.543c1.362-1.438,1.946-3.031,1.749-4.776l-2.355-20.934c-0.205-1.823-1.13-3.263-2.773-4.322
					c-1.645-1.057-3.583-1.458-5.816-1.204l-10.052,1.146l3.8,33.779L449.897,832.683z"/>
				<path fill="#FEF8CB" d="M540.054,797.304c-1.439-1.111-2.917-2.101-4.437-2.968c-1.322-0.798-2.711-1.493-4.164-2.085
					c-1.456-0.59-2.768-0.851-3.939-0.779l-10.683,0.649l1.463,24.374c0.009,0.161,0.077,0.476,0.204,0.947
					c0.125,0.473,0.38,1.057,0.766,1.752c0.384,0.696,1.016,1.438,1.896,2.224c0.878,0.786,2.077,1.573,3.593,2.359
					c-1.027,0.862-1.953,1.719-2.783,2.567c-0.744,0.687-1.382,1.444-1.92,2.275c-0.537,0.833-0.838,1.571-0.895,2.213l1.836,30.588
					c0.043,0.717,0.33,1.439,0.864,2.166c0.533,0.729,1.112,1.392,1.735,1.993c0.729,0.755,1.602,1.422,2.617,1.999l-24.732,1.505
					c0.835-0.771,1.569-1.574,2.205-2.413c0.547-0.672,1.04-1.401,1.485-2.188c0.441-0.786,0.64-1.577,0.592-2.375l-1.822-30.349
					c-0.136-0.63-0.52-1.326-1.153-2.088c-0.633-0.76-1.36-1.436-2.178-2.026c-0.926-0.741-1.95-1.479-3.071-2.211
					c1.411-0.965,2.504-1.91,3.282-2.838c0.775-0.926,1.338-1.761,1.686-2.501c0.346-0.741,0.529-1.352,0.551-1.833
					c0.019-0.48,0.028-0.76,0.023-0.841l-1.463-24.374l-10.098,0.614c-1.17,0.071-2.444,0.49-3.817,1.252
					c-1.374,0.764-2.62,1.618-3.738,2.565c-1.406,1.045-2.754,2.206-4.05,3.484l3.001-18.53l51.951-3.16L540.054,797.304z"/>
				<path fill="#FEF8CB" d="M603.797,860.718c0.452,0.952,0.976,1.783,1.571,2.493c0.695,0.87,1.487,1.618,2.375,2.244
					l-23.895,0.309c0.772-0.728,1.495-1.534,2.168-2.422c0.577-0.726,1.103-1.529,1.582-2.414c0.477-0.884,0.71-1.845,0.696-2.883
					l-0.371-29.084l-21.403,0.276l0.368,28.846c0.015,1.118,0.248,2.151,0.7,3.103c0.452,0.952,0.975,1.783,1.571,2.494
					c0.694,0.87,1.487,1.617,2.375,2.244l-23.895,0.309c0.772-0.729,1.495-1.534,2.168-2.422c0.577-0.727,1.103-1.529,1.582-2.415
					c0.477-0.884,0.71-1.844,0.696-2.882l-0.377-29.563c-0.107-0.637-0.457-1.33-1.053-2.081c-0.596-0.75-1.29-1.439-2.079-2.068
					c-0.889-0.785-1.875-1.571-2.962-2.356c1.455-0.896,2.591-1.787,3.411-2.678c0.818-0.888,1.419-1.693,1.802-2.417
					c0.38-0.724,0.593-1.324,0.637-1.804c0.042-0.479,0.063-0.759,0.063-0.839l-0.368-28.846c-0.011-0.877-0.267-1.732-0.766-2.563
					c-0.5-0.832-1.047-1.603-1.642-2.313c-0.696-0.868-1.439-1.657-2.23-2.365l23.895-0.31c-0.871,0.651-1.646,1.339-2.319,2.065
					c-0.578,0.647-1.082,1.391-1.511,2.234c-0.429,0.844-0.636,1.824-0.622,2.941l0.404,31.598l21.403-0.276l-0.402-31.479
					c-0.011-0.877-0.267-1.732-0.766-2.564c-0.5-0.831-1.047-1.603-1.642-2.313c-0.696-0.868-1.439-1.657-2.23-2.365l23.896-0.309
					c-0.872,0.65-1.646,1.338-2.319,2.065c-0.579,0.646-1.083,1.391-1.511,2.234c-0.43,0.843-0.636,1.824-0.623,2.94l0.369,28.846
					c0.001,0.08,0.027,0.358,0.083,0.837c0.054,0.478,0.257,1.074,0.609,1.787c0.351,0.714,0.948,1.505,1.79,2.371
					c0.841,0.868,2.051,1.77,3.627,2.707c-1.066,0.812-2.031,1.623-2.901,2.432c-0.775,0.649-1.473,1.377-2.098,2.182
					c-0.627,0.807-0.933,1.529-0.925,2.167l0.372,29.204C603.112,858.733,603.345,859.766,603.797,860.718z"/>
				<path fill="#FEF8CB" d="M691.066,830.365c0.41-0.377,0.809-0.954,1.195-1.733c0.383-0.776,0.695-1.56,0.934-2.346
					c0.339-0.86,0.588-1.845,0.747-2.956l15.393,14.028c-0.972-0.132-1.999-0.148-3.081-0.049c-0.887,0.112-1.803,0.302-2.747,0.569
					c-0.946,0.269-1.776,0.702-2.493,1.302c-0.611,0.446-1.404,1.062-2.375,1.848c-0.974,0.786-1.995,1.61-3.069,2.47
					c-1.075,0.861-2.149,1.722-3.223,2.581c-1.074,0.86-1.973,1.63-2.694,2.31c1.827,2.419,3.652,4.856,5.479,7.312
					c1.824,2.458,3.789,5.023,5.898,7.695c0.737,0.84,1.503,1.622,2.296,2.344c0.792,0.723,1.564,1.385,2.315,1.984
					c0.844,0.687,1.691,1.332,2.539,1.938l-26.985-1.477c0.603-0.285,1.11-0.617,1.522-0.996c0.31-0.301,0.573-0.667,0.793-1.095
					c0.218-0.427,0.195-0.889-0.072-1.383c-0.46-0.583-1.104-1.358-1.932-2.323c-0.829-0.964-1.473-1.738-1.933-2.324
					c-4.168,2.729-7.849,4.626-11.045,5.689c-3.196,1.065-6.36,1.511-9.49,1.339c-8.116-0.443-14.449-2.588-18.999-6.434
					c-4.55-3.845-6.623-9.473-6.224-16.884c0.146-2.708,0.765-5.131,1.86-7.271c1.093-2.137,2.473-4.1,4.135-5.887
					c1.662-1.786,3.536-3.403,5.621-4.848c2.083-1.444,4.19-2.827,6.317-4.149c-3.167-4.808-5.393-8.886-6.68-12.233
					c-1.288-3.347-1.848-6.574-1.68-9.683c0.413-7.649,2.544-13.047,6.396-16.192c3.852-3.146,9.842-4.497,17.968-4.053l0.146,0.009
					c8.029,0.438,13.788,2.432,17.278,5.979c3.491,3.548,5.03,9.146,4.618,16.796c-0.155,2.868-0.763,5.434-1.824,7.692
					c-1.063,2.261-2.428,4.303-4.1,6.129c-1.672,1.827-3.574,3.481-5.709,4.962c-2.136,1.483-4.318,2.881-6.541,4.198
					c1.457,1.997,2.986,4.059,4.585,6.185c1.597,2.125,3.31,4.397,5.138,6.814c1.433-1.121,2.692-2.09,3.772-2.91
					c1.082-0.819,2.165-1.681,3.246-2.58C689.443,831.834,690.344,831.044,691.066,830.365z M649.402,846.067
					c-0.202,1.906,0.398,3.498,1.797,4.773s3.239,2.095,5.52,2.46c2.279,0.364,4.734,0.24,7.361-0.377
					c2.626-0.615,5.017-1.823,7.17-3.624c-2.192-2.916-4.368-5.712-6.522-8.388c-2.156-2.675-4.054-5.137-5.694-7.385
					c-2.345,1.711-4.478,3.591-6.398,5.644C650.713,841.223,649.635,843.523,649.402,846.067z M658.658,799.7
					c-0.085,1.596,0.415,3.541,1.503,5.837c1.087,2.298,2.569,4.977,4.442,8.035c2.715-1.77,5.025-3.682,6.93-5.735
					c1.905-2.053,2.932-4.473,3.084-7.264c0.163-3.027-0.415-5.356-1.733-6.987c-1.318-1.631-3.23-2.593-5.736-2.892
					c-2.525,0.023-4.529,0.771-6.015,2.249C659.645,794.42,658.821,796.674,658.658,799.7z"/>
				<path fill="#FEF8CB" d="M799.547,810.878c-1.202-1.368-2.464-2.624-3.792-3.768c-1.146-1.038-2.376-1.988-3.691-2.849
					c-1.317-0.859-2.556-1.368-3.719-1.524l-10.609-1.419l-3.195,24.206c-0.021,0.159-0.015,0.48,0.02,0.969
					c0.032,0.487,0.172,1.109,0.419,1.867c0.244,0.757,0.724,1.606,1.439,2.547c0.712,0.94,1.739,1.944,3.078,3.008
					c-1.172,0.649-2.244,1.312-3.219,1.984c-0.86,0.53-1.632,1.151-2.316,1.863c-0.686,0.714-1.12,1.381-1.3,2l-4.01,30.376
					c-0.094,0.712,0.05,1.477,0.438,2.293c0.384,0.817,0.826,1.58,1.324,2.29c0.572,0.882,1.303,1.704,2.189,2.467l-24.561-3.287
					c0.966-0.595,1.839-1.242,2.623-1.943c0.664-0.554,1.287-1.175,1.873-1.862c0.583-0.686,0.927-1.425,1.032-2.217l3.978-30.139
					c-0.014-0.645-0.258-1.402-0.735-2.271c-0.477-0.868-1.062-1.671-1.753-2.408c-0.767-0.906-1.633-1.828-2.593-2.762
					c1.568-0.676,2.821-1.393,3.76-2.154c0.937-0.759,1.648-1.47,2.13-2.13c0.48-0.66,0.776-1.225,0.889-1.692
					c0.111-0.468,0.172-0.741,0.182-0.82l3.195-24.206l-10.028-1.342c-1.162-0.155-2.492,0.01-3.984,0.493
					c-1.495,0.485-2.879,1.085-4.156,1.799c-1.579,0.755-3.123,1.635-4.638,2.64l6.465-17.61l51.593,6.903L799.547,810.878z"/>
				<path fill="#FEF8CB" d="M826.631,886.451c1.128-0.667,2.115-1.362,2.958-2.089c0.73-0.665,1.412-1.464,2.047-2.395
					c0.633-0.929,0.963-1.961,0.99-3.096c0.025-1.134,0.056-2.287,0.092-3.461c0.032-1.173,0.04-2.209,0.02-3.109
					c0.01-1.055,0.021-2.11,0.033-3.167l-19.118-3.86l-3.499,9.304c-0.38,0.9-0.45,1.884-0.213,2.948
					c0.237,1.066,0.565,2.048,0.984,2.945c0.482,1.074,1.071,2.13,1.763,3.164l-23.431-4.731c0.893-0.47,1.695-1.001,2.41-1.589
					c0.605-0.528,1.187-1.082,1.751-1.66c0.564-0.577,1.005-1.159,1.32-1.748l10.332-27.092c0.408-1.057,0.428-2.151,0.056-3.285
					c-0.372-1.132-0.81-2.197-1.308-3.194c-0.676-1.112-1.401-2.235-2.17-3.368c2.183-0.453,3.911-0.999,5.186-1.639
					c1.272-0.638,2.226-1.299,2.862-1.985c0.747-0.744,1.253-1.536,1.521-2.379c2.946-7.787,5.373-14.094,7.283-18.917
					c1.907-4.823,2.995-7.411,3.266-7.765c0.363-0.821,0.395-1.73,0.095-2.728c-0.302-0.996-0.66-1.943-1.079-2.843
					c-0.5-0.995-1.086-2.051-1.762-3.163l35.649,7.198c-1.146,0.745-2.141,1.48-2.982,2.206c-0.73,0.667-1.402,1.406-2.012,2.218
					c-0.61,0.813-0.891,1.591-0.838,2.334l-0.558,29.065c0.017,0.411,0.083,0.953,0.2,1.627c0.113,0.676,0.389,1.422,0.824,2.242
					c0.436,0.82,1.064,1.661,1.891,2.519c0.824,0.858,1.95,1.717,3.375,2.573c-1.227,0.649-2.309,1.325-3.246,2.03
					c-0.827,0.647-1.606,1.427-2.335,2.337c-0.73,0.911-1.117,1.972-1.157,3.185c-0.033,3.168-0.103,6.389-0.206,9.664
					c-0.106,3.275-0.207,6.288-0.305,9.034c-0.099,2.748-0.18,5.03-0.244,6.849c-0.063,1.818-0.071,2.854-0.021,3.108
					c0.05,0.743,0.238,1.555,0.563,2.434c0.322,0.879,0.661,1.68,1.017,2.402c0.419,0.899,0.94,1.777,1.568,2.637L826.631,886.451z
					 M833.121,856.875l1.107-44.582l-16.056,41.562L833.121,856.875z"/>
				<path fill="#FEF8CB" d="M883.591,900.642c0.209-0.021,0.57-0.124,1.081-0.308c0.51-0.183,1.054-0.482,1.632-0.896
					c0.576-0.412,1.132-1.02,1.667-1.819c0.534-0.799,0.837-1.854,0.908-3.162l-2.115-22.92l-7.605-2.215l-5.913,20.583
					c-0.199,0.689-0.202,1.499-0.011,2.427c0.191,0.928,0.458,1.858,0.801,2.787c0.413,1.036,0.924,2.098,1.527,3.187l-22.956-6.685
					c0.97-0.547,1.906-1.146,2.806-1.8c0.761-0.525,1.48-1.084,2.16-1.676c0.678-0.592,1.095-1.155,1.249-1.692l8.424-29.322
					c0.081-0.64-0.054-1.405-0.407-2.299c-0.355-0.892-0.82-1.754-1.394-2.587c-0.626-1.011-1.343-2.051-2.156-3.119
					c1.651-0.433,2.965-0.943,3.95-1.529c0.982-0.587,1.76-1.17,2.334-1.75c0.572-0.581,0.973-1.088,1.2-1.52
					c0.224-0.434,0.361-0.725,0.405-0.879l7.762-27.022c0.242-0.843,0.255-1.773,0.04-2.792c-0.218-1.018-0.497-1.992-0.839-2.924
					c-0.416-1.034-0.867-2.121-1.353-3.26l28.309,8.243c3.098,0.901,5.847,2.223,8.248,3.959c2.401,1.738,4.372,3.725,5.919,5.96
					c1.544,2.237,2.589,4.617,3.137,7.144c0.545,2.526,0.456,5.055-0.272,7.584l-5.813,20.238c-0.925,3.22-2.743,5.911-5.448,8.071
					c-2.707,2.161-5.889,3.581-9.542,4.262c0.549,4.812,1.035,9.147,1.452,13.008l1.419,13.123c0.16,1.211,0.519,2.353,1.076,3.428
					c0.554,1.077,1.119,2.03,1.696,2.861c0.717,1.041,1.47,1.967,2.255,2.775L883.591,900.642z M892.279,860.307
					c2.159,0.629,4.142,0.542,5.951-0.261c1.807-0.802,2.954-2.047,3.439-3.733l5.813-20.238c0.506-1.763,0.202-3.449-0.911-5.062
					c-1.115-1.611-2.751-2.732-4.91-3.361l-9.717-2.829l-9.382,32.656L892.279,860.307z"/>
				<path fill="#FEF8CB" d="M990.75,866.996c-0.8-1.639-1.688-3.186-2.669-4.642c-0.832-1.306-1.77-2.549-2.813-3.729
					c-1.045-1.179-2.106-1.999-3.186-2.458l-9.86-4.188l-9.43,22.497c-0.062,0.148-0.141,0.46-0.235,0.94
					c-0.096,0.479-0.124,1.116-0.085,1.912c0.038,0.795,0.277,1.741,0.72,2.839c0.44,1.097,1.169,2.338,2.181,3.72
					c-1.301,0.314-2.507,0.668-3.626,1.058c-0.969,0.283-1.875,0.678-2.723,1.183c-0.849,0.506-1.443,1.033-1.778,1.583
					l-11.833,28.232c-0.277,0.662-0.339,1.438-0.179,2.327c0.156,0.891,0.382,1.744,0.676,2.562c0.321,1.003,0.81,1.99,1.465,2.961
					l-22.828-9.698c1.088-0.317,2.1-0.71,3.04-1.177c0.787-0.358,1.55-0.791,2.294-1.299c0.742-0.507,1.269-1.128,1.577-1.864
					l11.741-28.012c0.155-0.626,0.118-1.422-0.114-2.387c-0.233-0.964-0.587-1.894-1.059-2.789
					c-0.503-1.078-1.096-2.196-1.777-3.353c1.69-0.234,3.086-0.594,4.191-1.078c1.103-0.483,1.975-0.979,2.612-1.488
					c0.636-0.51,1.07-0.975,1.302-1.396c0.229-0.422,0.36-0.669,0.391-0.743l9.429-22.498l-9.32-3.959
					c-1.081-0.459-2.407-0.653-3.972-0.583c-1.568,0.07-3.062,0.28-4.481,0.63c-1.721,0.309-3.441,0.747-5.165,1.313l10.854-15.267
					l47.952,20.371L990.75,866.996z"/>
			</g>
		</g>
	</g>
</g>
</svg>
